<?xml version="1.0" encoding="utf-8"?>
<svg version="1.1" id="Layer_1" xmlns="http://www.w3.org/2000/svg" xmlns:xlink="http://www.w3.org/1999/xlink" x="0px" y="0px"
	 viewBox="0 0 34.8 35" style="enable-background:new 0 0 34.8 35;" xml:space="preserve">
<style type="text/css">
	.st0{fill:#FFFFFF;}
	.st1{fill:#E42119;}
	.st2{fill:#BDBDBD;}
	.st3{fill:#F9B233;}
</style>
<g>
	<g>
		<circle class="st0" cx="17.4" cy="17.5" r="15"/>
		<path class="st1" d="M17.4,5c6.9,0,12.5,5.6,12.5,12.5S24.3,30,17.4,30S4.9,24.4,4.9,17.5S10.5,5,17.4,5 M17.4,0
			C7.8,0-0.1,7.8-0.1,17.5S7.7,35,17.4,35s17.5-7.8,17.5-17.5S27.1,0,17.4,0L17.4,0z"/>
	</g>
</g>
<g>
	<path class="st1" d="M6.6,23.7c-1.1-1.8-1.7-4-1.7-6.2C4.9,10.6,10.5,5,17.4,5l0,0V0l0,0l0,0c-2.9,0-5.7,0.7-8.1,2
		C9.2,2.1,9,2.1,8.9,2.2C8.7,2.3,8.5,2.5,8.3,2.6C8,2.8,7.7,3,7.4,3.2C7.2,3.3,7,3.5,6.8,3.6C6.5,3.8,6.3,4,6.1,4.2
		C5.8,4.4,5.6,4.6,5.4,4.8C5.2,5,5,5.2,4.9,5.4C4.6,5.6,4.4,5.8,4.2,6C4.1,6.2,3.9,6.4,3.7,6.6C3.5,6.9,3.4,7.1,3.2,7.3
		C3,7.6,2.9,7.8,2.7,8C2.6,8.3,2.4,8.5,2.3,8.7C2.1,9,2,9.3,1.8,9.5c-0.1,0.2-0.2,0.4-0.3,0.6c-0.1,0.3-0.3,0.6-0.4,1
		c0,0.2-0.1,0.4-0.2,0.6c-0.1,0.3-0.2,0.7-0.3,1c-0.1,0.2-0.1,0.4-0.2,0.6c-0.1,0.3-0.2,0.7-0.2,1c0,0.2-0.1,0.5-0.1,0.7
		c0,0.3-0.1,0.6-0.1,0.9s0,0.6,0,0.9s0,0.5,0,0.8s0,0.7,0,1s0,0.5,0.1,0.8c0,0.3,0.1,0.6,0.1,0.9s0.1,0.6,0.2,0.9
		c0,0.2,0.1,0.4,0.2,0.7c0.1,0.3,0.2,0.7,0.3,1C1,23.1,1,23.2,1.1,23.4c0.1,0.4,0.3,0.8,0.5,1.2c0.1,0.1,0.1,0.3,0.2,0.4
		c0.2,0.4,0.4,0.8,0.6,1.2c0,0,0,0.1,0.1,0.1L6.6,23.7z"/>
	<path class="st2" d="M17.4,0v5c6.9,0,12.5,5.6,12.5,12.5c0,2.3-0.6,4.4-1.7,6.2l4.3,2.5c0-0.1,0.1-0.1,0.1-0.2
		c0.1-0.1,0.2-0.3,0.2-0.4c1.3-2.4,2-5.2,2-8.1l0,0C34.9,7.8,27.1,0,17.4,0z"/>
	<path class="st3" d="M31.3,28.2c0.2-0.2,0.3-0.4,0.5-0.6c0.2-0.3,0.4-0.6,0.6-0.9c0.1-0.1,0.2-0.3,0.2-0.4l-4.3-2.5
		c-2.2,3.7-6.2,6.2-10.9,6.2c-4.6,0-8.6-2.5-10.8-6.3l-4.3,2.5c0.2,0.4,0.4,0.7,0.6,1l0,0c1.3,1.9,2.9,3.4,4.7,4.7l0,0
		c0.4,0.3,0.8,0.5,1.2,0.7c0.4,0.2,0.8,0.4,1.2,0.6c0.1,0.1,0.3,0.1,0.4,0.2c0.4,0.2,0.8,0.3,1.2,0.5c0.2,0.1,0.3,0.1,0.5,0.2
		c0.3,0.1,0.7,0.2,1,0.3c0.2,0.1,0.4,0.1,0.7,0.2c0.3,0.1,0.6,0.1,0.9,0.2c0.3,0,0.6,0.1,0.9,0.1c0.3,0,0.5,0,0.8,0.1
		c0.3,0,0.6,0,1,0c0.3,0,0.5,0,0.8,0s0.6,0,0.9,0s0.6-0.1,0.9-0.1c0.2,0,0.5-0.1,0.7-0.1c0.3-0.1,0.7-0.1,1-0.2
		c0.2,0,0.4-0.1,0.6-0.2c0.4-0.1,0.7-0.2,1-0.3c0.2-0.1,0.4-0.1,0.6-0.2c0.3-0.1,0.7-0.3,1-0.4c0.2-0.1,0.4-0.2,0.6-0.3
		c0.3-0.1,0.6-0.3,0.8-0.5c0.2-0.1,0.5-0.3,0.7-0.4c0.2-0.2,0.5-0.3,0.7-0.5s0.5-0.3,0.7-0.5s0.4-0.3,0.6-0.5s0.5-0.4,0.7-0.6
		s0.4-0.4,0.6-0.6s0.4-0.4,0.6-0.7C30.9,28.6,31.1,28.4,31.3,28.2z"/>
</g>
</svg>
