<svg xmlns="http://www.w3.org/2000/svg" viewBox="0 0 8.00012 6">
  <defs>
    <style>
      .cls-1 {
        fill: #3296d1;
      }
    </style>
  </defs>
  <title>answer</title>
  <g id="Слой_2" data-name="Слой 2">
    <g id="UI-kit">
      <g id="Body">
        <path class="cls-1" d="M7.927,3.4265a.25017.25017,0,0,0,0-.3535l-2.5-2.5A.25028.25028,0,0,0,5,.75V2H3.715A3.77374,3.77374,0,0,1,.537.2375L.462.1175A.25.25,0,0,0,.25,0,.23517.23517,0,0,0,.181.01.2496.2496,0,0,0,0,.25,4.25476,4.25476,0,0,0,4.25,4.5H5V5.75a.25028.25028,0,0,0,.427.177Z"/>
      </g>
    </g>
  </g>
</svg>
