<?xml version="1.0" encoding="utf-8"?>
<svg version="1.1" id="Layer_1" xmlns="http://www.w3.org/2000/svg" xmlns:xlink="http://www.w3.org/1999/xlink" x="0px" y="0px"
	 viewBox="0 0 18.4 19" style="enable-background:new 0 0 18.4 19;" xml:space="preserve">
<style type="text/css">
	.st0{fill:#318FBB;}
</style>
<path class="st0" d="M17.4,2H1C0.4,2,0,1.6,0,1s0.4-1,1-1h16.4c0.6,0,1,0.4,1,1S18,2,17.4,2z"/>
<path class="st0" d="M17.4,10.7H1c-0.6,0-1-0.4-1-1s0.4-1,1-1h16.4c0.6,0,1,0.4,1,1S18,10.7,17.4,10.7z"/>
<path class="st0" d="M17.4,18.7H1c-0.6,0-1-0.4-1-1s0.4-1,1-1h16.4c0.6,0,1,0.4,1,1S18,18.7,17.4,18.7z"/>
</svg>
