<svg xmlns="http://www.w3.org/2000/svg" viewBox="0 0 19.5 21.5">
  <defs>
    <style>
      .cls-1 {
        fill: #bdbdbd;
      }
    </style>
  </defs>
  <title>calendar</title>
  <g id="Слой_2" data-name="Слой 2">
    <g id="UI-kit">
      <g id="Body">
        <path class="cls-1" d="M16.75,2H14.5V.75a.75.75,0,0,0-1.5,0V2H6.5V.75A.75.75,0,0,0,5,.75V2H2.75A2.7528,2.7528,0,0,0,0,4.75v14A2.7528,2.7528,0,0,0,2.75,21.5h14a2.7528,2.7528,0,0,0,2.75-2.75v-14A2.7528,2.7528,0,0,0,16.75,2Zm-14,1.5H5V4.75a.75.75,0,0,0,1.5,0V3.5H13V4.75a.75.75,0,0,0,1.5,0V3.5h2.25A1.25116,1.25116,0,0,1,18,4.75V8H1.5V4.75A1.25116,1.25116,0,0,1,2.75,3.5Zm14,16.5h-14A1.25116,1.25116,0,0,1,1.5,18.75V9.5H18v9.25A1.25116,1.25116,0,0,1,16.75,20Z"/>
      </g>
    </g>
  </g>
</svg>
