<?xml version="1.0" encoding="utf-8"?>
<svg version="1.1" id="Layer_1" xmlns="http://www.w3.org/2000/svg" xmlns:xlink="http://www.w3.org/1999/xlink" x="0px" y="0px"
	 viewBox="0 0 14.2 14.2" style="enable-background:new 0 0 14.2 14.2;" xml:space="preserve">
<style type="text/css">
	.st0{fill:#BDBDBD;}
</style>
<path class="st0" d="M6.4,6.4H0.7C0.3,6.4,0,6.7,0,7.1c0,0.4,0.3,0.7,0.7,0.7h5.6v5.6c0,0.4,0.3,0.7,0.7,0.7c0.4,0,0.7-0.3,0.7-0.7
	V7.9h5.6c0.4,0,0.7-0.3,0.7-0.7c0-0.2-0.1-0.4-0.2-0.5c-0.1-0.1-0.3-0.2-0.5-0.2H7.9V0.7c0-0.2-0.1-0.4-0.2-0.5C7.5,0.1,7.3,0,7.1,0
	C6.7,0,6.4,0.3,6.4,0.7V6.4z"/>
</svg>
