<svg xmlns="http://www.w3.org/2000/svg" viewBox="0 0 19.5 21.5">
  <defs>
    <style>
      .cls-1 {
        fill: #bdbdbd;
      }
    </style>
  </defs>
  <title>delete</title>
  <g id="Слой_2" data-name="Слой 2">
    <g id="UI-kit">
      <g id="Body">
        <path class="cls-1" d="M18.75,4H14.5V2.75A2.7528,2.7528,0,0,0,11.75,0h-4A2.7528,2.7528,0,0,0,5,2.75V4H.75a.75.75,0,0,0,0,1.5H2V18.75A2.7528,2.7528,0,0,0,4.75,21.5h10a2.7528,2.7528,0,0,0,2.75-2.75V5.5h1.25a.75.75,0,0,0,0-1.5ZM6.5,2.75A1.25116,1.25116,0,0,1,7.75,1.5h4A1.25116,1.25116,0,0,1,13,2.75V4H6.5Zm9.5,16A1.25116,1.25116,0,0,1,14.75,20h-10A1.25116,1.25116,0,0,1,3.5,18.75V5.5H16Zm-7.5-9v6a.75.75,0,0,1-1.5,0v-6a.75.75,0,0,1,1.5,0Zm4,0v6a.75.75,0,0,1-1.5,0v-6a.75.75,0,0,1,1.5,0Z"/>
      </g>
    </g>
  </g>
</svg>
