<svg xmlns="http://www.w3.org/2000/svg" viewBox="0 0 21.62109 21.62">
  <defs>
    <style>
      .cls-1 {
        fill: #bdbdbd;
      }
    </style>
  </defs>
  <title>edit</title>
  <g id="Слой_2" data-name="Слой 2">
    <g id="UI-kit">
      <g id="Body">
        <path class="cls-1" d="M19.5,11.87v7a2.7528,2.7528,0,0,1-2.75,2.75h-14A2.7528,2.7528,0,0,1,0,18.87v-14A2.75279,2.75279,0,0,1,2.75,2.12h7a.75.75,0,0,1,0,1.5h-7A1.25116,1.25116,0,0,0,1.5,4.87v14a1.25116,1.25116,0,0,0,1.25,1.25h14A1.25116,1.25116,0,0,0,18,18.87v-7a.75.75,0,1,1,1.5,0Zm2.12109-9a2.85193,2.85193,0,0,1-.84082,2.03027l-9.5,9.5a.75439.75439,0,0,1-.34863.19726l-4,1A.76443.76443,0,0,1,6.75,15.62a.75.75,0,0,1-.72754-.93165l1-4a.75437.75437,0,0,1,.19727-.34863l9.5-9.5A2.87109,2.87109,0,0,1,21.62109,2.87Zm-1.5,0a1.37109,1.37109,0,0,0-2.34082-.96973L8.42676,11.25378l-.64551,2.585,2.585-.64551,9.35352-9.35352A1.36285,1.36285,0,0,0,20.12109,2.87Z"/>
      </g>
    </g>
  </g>
</svg>
