<svg xmlns="http://www.w3.org/2000/svg" viewBox="0 0 19.5 19.5">
  <defs>
    <style>
      .cls-1 {
        fill: #3090bb;
      }
    </style>
  </defs>
  <title>external link</title>
  <g id="Слой_2" data-name="Слой 2">
    <g id="UI-kit">
      <g id="Body">
        <path class="cls-1" d="M16.5,10.75v6a2.7528,2.7528,0,0,1-2.75,2.75h-11A2.7528,2.7528,0,0,1,0,16.75v-11A2.7528,2.7528,0,0,1,2.75,3h6a.75.75,0,0,1,0,1.5h-6A1.25116,1.25116,0,0,0,1.5,5.75v11A1.25116,1.25116,0,0,0,2.75,18h11A1.25116,1.25116,0,0,0,15,16.75v-6a.75.75,0,0,1,1.5,0ZM19.44208.46338A.7527.7527,0,0,0,18.75,0h-6a.75.75,0,0,0,0,1.5h4.18945L7.21973,11.21973a.74992.74992,0,1,0,1.06054,1.06054L18,2.56055V6.75a.75.75,0,0,0,1.5,0v-6A.75.75,0,0,0,19.44208.46338Z"/>
      </g>
    </g>
  </g>
</svg>
