<svg xmlns="http://www.w3.org/2000/svg" viewBox="0 0 23.5 17.5">
  <defs>
    <style>
      .cls-1 {
        fill: #bdbdbd;
      }
    </style>
  </defs>
  <title>eye</title>
  <g id="Слой_2" data-name="Слой 2">
    <g id="UI-kit">
      <g id="Body">
        <path class="cls-1" d="M23.4209,8.415C23.249,8.07129,19.12891,0,11.75,0S.251,8.07129.0791,8.415a.74875.74875,0,0,0,0,.66992C.251,9.42871,4.37109,17.5,11.75,17.5S23.249,9.42871,23.4209,9.085A.74875.74875,0,0,0,23.4209,8.415ZM11.75,16C6.09473,16,2.44043,10.21777,1.60352,8.749,2.43848,7.28027,6.08105,1.5,11.75,1.5c5.65527,0,9.30957,5.78223,10.14648,7.251C21.06152,10.21973,17.419,16,11.75,16Zm0-11A3.75,3.75,0,1,0,15.5,8.75,3.75473,3.75473,0,0,0,11.75,5Zm0,6A2.25,2.25,0,1,1,14,8.75,2.25309,2.25309,0,0,1,11.75,11Z"/>
      </g>
    </g>
  </g>
</svg>
