<svg xmlns="http://www.w3.org/2000/svg" viewBox="0 0 19.5 19.5">
  <defs>
    <style>
      .cls-1 {
        fill: #3090bb;
      }
    </style>
  </defs>
  <title>image</title>
  <g id="Слой_2" data-name="Слой 2">
    <g id="UI-kit">
      <g id="Body">
        <path class="cls-1" d="M16.75,0h-14A2.7528,2.7528,0,0,0,0,2.75v14A2.7528,2.7528,0,0,0,2.75,19.5h14a2.7528,2.7528,0,0,0,2.75-2.75v-14A2.7528,2.7528,0,0,0,16.75,0ZM1.5,16.75v-14A1.25116,1.25116,0,0,1,2.75,1.5h14A1.25116,1.25116,0,0,1,18,2.75v8.18945L14.28027,7.21973a.74972.74972,0,0,0-1.06054,0l-10.728,10.728A1.23344,1.23344,0,0,1,1.5,16.75ZM16.75,18H4.56055L13.75,8.81055l4.25,4.25V16.75A1.25116,1.25116,0,0,1,16.75,18ZM6.25,8.5A2.25,2.25,0,1,0,4,6.25,2.25309,2.25309,0,0,0,6.25,8.5Zm0-3a.75.75,0,1,1-.75.75A.75144.75144,0,0,1,6.25,5.5Z"/>
      </g>
    </g>
  </g>
</svg>
