<svg xmlns="http://www.w3.org/2000/svg" viewBox="0 0 23.50032 23.5">
  <defs>
    <style>
      .cls-1 {
        fill: #bdbdbd;
      }
    </style>
  </defs>
  <title>no eye</title>
  <g id="Слой_2" data-name="Слой 2">
    <g id="UI-kit">
      <g id="Body">
        <path class="cls-1" d="M8.92024,4.16113a.751.751,0,0,1,.55957-.90136A9.21573,9.21573,0,0,1,11.75228,3c7.37695,0,11.49707,8.07129,11.66894,8.415a.74856.74856,0,0,1-.00977.68848,19.24425,19.24425,0,0,1-2.24609,3.31933.75.75,0,0,1-1.14844-.96484,17.77613,17.77613,0,0,0,1.87891-2.709C21.057,10.27832,17.40364,4.5,11.75032,4.5h-.02246a8.36069,8.36069,0,0,0-1.90625.2207A.74948.74948,0,0,1,8.92024,4.16113ZM23.2806,23.28027a.74972.74972,0,0,1-1.06055,0L17.6053,18.66553A10.90761,10.90761,0,0,1,11.763,20.5C4.37142,20.5.2513,12.42871.07942,12.085a.74763.74763,0,0,1,.00977-.68945A19.04883,19.04883,0,0,1,4.70613,5.76636L.22005,1.28027A.74992.74992,0,1,1,1.2806.21973l22,22A.74973.74973,0,0,1,23.2806,23.28027ZM10.14192,13.4707a2.18317,2.18317,0,0,0,1.61328.60254,2.22531,2.22531,0,0,0,.9834-.27441L9.70052,10.76074A2.24952,2.24952,0,0,0,10.14192,13.4707Zm6.37964,4.11109-2.69092-2.69092a3.71641,3.71641,0,0,1-2.0227.6814q-.06738.00293-.13477.00293A3.73152,3.73152,0,0,1,8.61861,9.67871L5.76705,6.82715A17.54744,17.54744,0,0,0,1.60579,11.752C2.44466,13.22461,6.098,19,11.75032,19A9.376,9.376,0,0,0,16.52156,17.58179Z"/>
      </g>
    </g>
  </g>
</svg>
