<svg xmlns="http://www.w3.org/2000/svg" viewBox="0 0 55.11719 19.5">
  <defs>
    <style>
      .cls-1 {
        fill: #3090bb;
      }
    </style>
  </defs>
  <title>pdf</title>
  <g id="Слой_2" data-name="Слой 2">
    <g id="UI-kit">
      <g id="Body">
        <path class="cls-1" d="M19.5,12.75v4a2.7528,2.7528,0,0,1-2.75,2.75h-14A2.7528,2.7528,0,0,1,0,16.75v-4a.75.75,0,0,1,1.5,0v4A1.25116,1.25116,0,0,0,2.75,18h14A1.25116,1.25116,0,0,0,18,16.75v-4a.75.75,0,0,1,1.5,0Zm-10.28027.53027a.75283.75283,0,0,0,1.06054,0l5-5a.74992.74992,0,0,0-1.06054-1.06054L10.5,10.93945V.75A.75.75,0,0,0,9,.75V10.93945L5.28027,7.21973A.74992.74992,0,0,0,4.21973,8.28027ZM37.78125,8.623a3.94369,3.94369,0,0,1,.124.93554,3.85413,3.85413,0,0,1-.124.92969,2.42951,2.42951,0,0,1-.46094.92969,2.49191,2.49191,0,0,1-.96191.709,3.98846,3.98846,0,0,1-1.61231.2793H32.27637v3.5625h-1.625V6.68555h4.09472a3.88165,3.88165,0,0,1,1.61231.28711,2.54142,2.54142,0,0,1,.96191.71484A2.426,2.426,0,0,1,37.78125,8.623Zm-1.501.92383a1.90967,1.90967,0,0,0-.12988-.75391,1.19544,1.19544,0,0,0-.35156-.47461,1.25705,1.25705,0,0,0-.50684-.24121,2.77393,2.77393,0,0,0-.61133-.06543H32.27637v3.06836h2.3789a2.0874,2.0874,0,0,0,.5586-.07813,1.5927,1.5927,0,0,0,.52636-.2539,1.296,1.296,0,0,0,.39063-.4668A1.60914,1.60914,0,0,0,36.28027,9.54688Zm10.74414-.02735a6.92059,6.92059,0,0,1,0,3.61524A4.24945,4.24945,0,0,1,46.29,14.60938a3.42641,3.42641,0,0,1-1.27442.99511,4.31879,4.31879,0,0,1-1.8457.36426H39.32227V6.68555h3.84765a4.31874,4.31874,0,0,1,1.8457.36523A3.42416,3.42416,0,0,1,46.29,8.04492,4.24936,4.24936,0,0,1,47.02441,9.51953Zm-1.38476,1.80762a6.53866,6.53866,0,0,0-.12305-1.30567,2.53942,2.53942,0,0,0-.46777-1.05371,2.27815,2.27815,0,0,0-.94922-.70215,4.05733,4.05733,0,0,0-1.55371-.2539H40.94727v6.63086H42.5459a4.05713,4.05713,0,0,0,1.55371-.25391,2.26971,2.26971,0,0,0,.94922-.70215,2.54088,2.54088,0,0,0,.46777-1.05273A6.55556,6.55556,0,0,0,45.63965,11.32715Zm9.47754-3.23731V6.68555H48.708v9.2832h1.625V11.84766h4.19824V10.52148H50.333V8.08984Z"/>
      </g>
    </g>
  </g>
</svg>
