<svg xmlns="http://www.w3.org/2000/svg" viewBox="0 0 34.45599 39.4466">
  <defs>
    <style>
      .cls-1 {
        fill: #e42119;
      }
    </style>
  </defs>
  <title>question</title>
  <g id="Слой_2" data-name="Слой 2">
    <g id="UI-kit">
      <g id="Body">
        <path class="cls-1" d="M17.228,0A17.22809,17.22809,0,0,0,8.931,32.32661l-.2026,7.12,8.12886-5.0099c.12266.00275.24533.01929.37075.01929A17.228,17.228,0,0,0,17.228,0Zm-.7732,27.5896a2.51835,2.51835,0,0,1-2.58557-2.64346,2.51777,2.51777,0,0,1,2.58557-2.64622,2.645,2.645,0,0,1,0,5.28968Zm3.51589-10.81229a4.99618,4.99618,0,0,0-1.48023,3.6358v.5196h-3.866l-.03032-.7539a6.39536,6.39536,0,0,1,1.71729-4.562c.92755-1.10672,1.68558-2.03566,1.68558-3.02386,0-1.01576-.6712-1.6842-2.12524-1.74071a5.45066,5.45066,0,0,0-2.87225.87105L12.01,8.552a9.97372,9.97372,0,0,1,4.8514-1.18667c3.8384,0,5.57912,2.11973,5.57912,4.533C22.44188,14.10353,21.07742,15.55619,19.97069,16.77731Z"/>
      </g>
    </g>
  </g>
</svg>
