<svg xmlns="http://www.w3.org/2000/svg" viewBox="0 0 14.60868 13.99991">
  <defs>
    <style>
      .cls-1 {
        fill: #e42119;
      }
    </style>
  </defs>
  <title>send</title>
  <g id="Слой_2" data-name="Слой 2">
    <g id="UI-kit">
      <g id="Body">
        <path class="cls-1" d="M5.32606,10.72037l2.47559.84594L6.15028,13.81387a.45643.45643,0,0,1-.36768.186.46368.46368,0,0,1-.14245-.02246.45743.45743,0,0,1-.31409-.43409ZM14.41688.08462a.45713.45713,0,0,0-.476-.033L.24525,7.204a.45671.45671,0,0,0,.06335.83691L4.116,9.34219l8.1084-6.93286L5.95008,9.96866l6.38086,2.1809a.46593.46593,0,0,0,.14722.02442.45607.45607,0,0,0,.45166-.38892l1.674-11.261A.4572.4572,0,0,0,14.41688.08462Z"/>
      </g>
    </g>
  </g>
</svg>
