<svg xmlns="http://www.w3.org/2000/svg" viewBox="0 0 10.83398 10.83301">
  <defs>
    <style>
      .cls-1 {
        fill: #bdbdbd;
      }
    </style>
  </defs>
  <title>size</title>
  <g id="Слой_2" data-name="Слой 2">
    <g id="UI-kit">
      <g id="Body">
        <path class="cls-1" d="M10.834,0V5.11328a.75.75,0,0,1-1.5,0V2.56006L7.21973,4.67383A.74992.74992,0,0,1,6.15918,3.61328L8.27307,1.5H5.71973a.75.75,0,0,1,0-1.5ZM5.11426,9.333H2.56091L4.6748,7.21973A.74992.74992,0,0,0,3.61426,6.15918L1.5,8.273V5.71973a.75.75,0,0,0-1.5,0V10.833H5.11426a.75.75,0,0,0,0-1.5Z"/>
      </g>
    </g>
  </g>
</svg>
