<svg xmlns="http://www.w3.org/2000/svg" viewBox="0 0 23.50112 16.95996">
  <defs>
    <style>
      .cls-1 {
        fill: #3090bb;
      }
    </style>
  </defs>
  <title>video</title>
  <g id="Слой_2" data-name="Слой 2">
    <g id="UI-kit">
      <g id="Body">
        <path class="cls-1" d="M23.02883,3.03711c-.00293-.0166-.00683-.0332-.01074-.04981A3.54661,3.54661,0,0,0,20.52883.44141C18.771.0127,12.46438,0,11.75051,0S4.72121.01367,2.9468.48828A3.55472,3.55472,0,0,0,.47219,3.07715a29.818,29.818,0,0,0-.47168,5.418,29.78984,29.78984,0,0,0,.48828,5.541,3.55505,3.55505,0,0,0,2.46875,2.43848c1.76367.47168,8.0791.48535,8.793.48535s7.0293-.01367,8.80469-.48828a3.55673,3.55673,0,0,0,2.47363-2.58887,29.73087,29.73087,0,0,0,.47168-5.37793A29.7718,29.7718,0,0,0,23.02883,3.03711ZM21.563,13.56738a2.03145,2.03145,0,0,1-1.40527,1.458,61.36327,61.36327,0,0,1-8.40723.43457,61.40581,61.40581,0,0,1-8.40137-.43359,2.028,2.028,0,0,1-1.40039-1.3291,28.37976,28.37976,0,0,1-.44824-5.20118A28.36545,28.36545,0,0,1,1.938,3.39258a2.03271,2.03271,0,0,1,1.40625-1.458A61.34848,61.34848,0,0,1,11.75051,1.5a67.8148,67.8148,0,0,1,8.39649.3916,2.0333,2.0333,0,0,1,1.41015,1.43848,28.22739,28.22739,0,0,1,.44336,5.17285A28.304,28.304,0,0,1,21.563,13.56738Zm-5.9414-5.71972-5.75-3.27051a.75047.75047,0,0,0-1.1211.65234v6.54a.75083.75083,0,0,0,1.1211.65235l5.75-3.26954a.751.751,0,0,0,0-1.30468Zm-5.3711,2.63281V6.51855L13.73293,8.5Z"/>
      </g>
    </g>
  </g>
</svg>
