<svg xmlns="http://www.w3.org/2000/svg" viewBox="0 0 26.61557 32.3198">
  <defs>
    <style>
      .cls-1 {
        fill: #bdbdbd;
      }
    </style>
  </defs>
  <title>youtube_1</title>
  <g id="Слой_2" data-name="Слой 2">
    <g id="UI-kit">
      <g id="Body">
        <path class="cls-1" d="M16.7779,22.42274a1.4055,1.4055,0,0,0-.11154-.49606.53432.53432,0,0,0-.48075-.3285.83789.83789,0,0,0-.6559.24613.43884.43884,0,0,0-.10971.16376l.00393,5.29232v.13018s.045.06092.05209.069a1.049,1.049,0,0,0,.5598.34382.54185.54185,0,0,0,.71585-.42852,1.28244,1.28244,0,0,0,.02966-.26673c.00184-1.57583.00478-3.15055-.00343-4.72541Zm0,0a1.4055,1.4055,0,0,0-.11154-.49606.53432.53432,0,0,0-.48075-.3285.83789.83789,0,0,0-.6559.24613.43884.43884,0,0,0-.10971.16376l.00393,5.29232v.13018s.045.06092.05209.069a1.049,1.049,0,0,0,.5598.34382.54185.54185,0,0,0,.71585-.42852,1.28244,1.28244,0,0,0,.02966-.26673c.00184-1.57583.00478-3.15055-.00343-4.72541Zm5.92628-7.98126q-9.39506-.20115-18.79329,0A3.99777,3.99777,0,0,0,0,18.43855v9.78263a3.998,3.998,0,0,0,3.91089,3.99805q9.39561.20115,18.79329,0a3.99807,3.99807,0,0,0,3.91139-3.99805V18.43855a3.99786,3.99786,0,0,0-3.91139-3.99707ZM5.75051,29.11267H3.94387V18.90152H2.0741V17.19318h5.55v1.70454H5.75051Zm6.4639-4.23841v4.23939H10.61517v-.96908c-.058.06178-.09046.09524-.12062.12968a2.93689,2.93689,0,0,1-1.2325.88341,1.49846,1.49846,0,0,1-.7493.06754.92232.92232,0,0,1-.72491-.57647,2.24018,2.24018,0,0,1-.16572-.92263c-.0038-1.16692-.00184-7.34314-.00184-7.40295H9.2156c.00294.05405.00907,4.48737.01,6.64972a1.773,1.773,0,0,0,.02439.35289.38987.38987,0,0,0,.56079.31269,1.73918,1.73918,0,0,0,.77271-.60478.27756.27756,0,0,0,.03065-.1618V20.31359l1.60022-.00381Zm6.08477,3.3919a1.31121,1.31121,0,0,1-1.36132.96382,1.80732,1.80732,0,0,1-1.36415-.62244l-.15456-.16474v.66889H13.81647V17.1922h1.60268v3.9234a1.59319,1.59319,0,0,1,.17234-.27347,1.84192,1.84192,0,0,1,.92311-.58652,1.38951,1.38951,0,0,1,1.661.75506,3.09568,3.09568,0,0,1,.25472,1.33877q.00423,2.4987.001,4.9979a2.92294,2.92294,0,0,1-.13214.91882Zm5.91807-.33524a1.96017,1.96017,0,0,1-1.69264,1.38768,2.67633,2.67633,0,0,1-1.52791-.15616,2.12076,2.12076,0,0,1-1.21178-1.54323,4.64073,4.64073,0,0,1-.11681-.99543c-.013-1.30519-.00674-2.61136-.00393-3.91666a2.63632,2.63632,0,0,1,.63164-1.83471,2.33052,2.33052,0,0,1,1.99516-.76953,2.77035,2.77035,0,0,1,.69622.12637,1.94054,1.94054,0,0,1,1.322,1.57007,4.71792,4.71792,0,0,1,.08814.88819c.01287.69622-.00478,2.23075-.00478,2.23075H21.32422V27.118a.71444.71444,0,1,0,1.42887,0V25.98749h1.64852a7.99423,7.99423,0,0,1-.18436,1.94343Zm-1.46416-5.61114a.71444.71444,0,1,0-1.42887,0v1.23483h1.42887Zm-6.08673-.3931a.53432.53432,0,0,0-.48075-.3285.83789.83789,0,0,0-.6559.24613.43884.43884,0,0,0-.10971.16376l.00393,5.29232v.13018s.045.06092.05209.069a1.05275,1.05275,0,0,0,.5598.34431.54239.54239,0,0,0,.71585-.42864,1.28777,1.28777,0,0,0,.02966-.2666c.00184-1.57583.00478-3.15105-.00343-4.72591a1.4055,1.4055,0,0,0-.11154-.49606ZM20.76209,3.13l-.00049,8.84946H19.12179l.00184-.95094c-.18093.17859-.33562.34566-.50612.49557a2.21416,2.21416,0,0,1-1.04189.54154,1.04047,1.04047,0,0,1-1.33105-.7091,2.34547,2.34547,0,0,1-.10627-.66031V3.13h1.62743V9.87836a1.5148,1.5148,0,0,0,.023.26771.36954.36954,0,0,0,.52278.316,1.74779,1.74779,0,0,0,.78669-.60528.28971.28971,0,0,0,.02439-.16462V3.13ZM7.19935,4.66792C6.84364,3.16735,6.09764,0,6.09764,0h-1.866S5.6652,4.75458,6.30639,6.87477a.83527.83527,0,0,1,.03395.24037l-.001,4.86233H8.0602L8.05934,7.11514a.84794.84794,0,0,1,.034-.24037C8.73437,4.75458,10.168,0,10.168,0H8.302s-.746,3.16735-1.10171,4.66792Zm5.21424-1.75957A2.34788,2.34788,0,0,0,10.066,5.25641V9.85152a2.34781,2.34781,0,0,0,4.69562,0V5.25641a2.348,2.348,0,0,0-2.34806-2.34806Zm.678,7.03608a.67748.67748,0,0,1-1.35495,0V5.1635a.67748.67748,0,1,1,1.35495,0Z"/>
      </g>
    </g>
  </g>
</svg>
