<svg xmlns="http://www.w3.org/2000/svg" viewBox="0 0 60.37877 28">
  <defs>
    <style>
      .cls-1 {
        fill: #2c1c00;
        fill-rule: evenodd;
      }
    </style>
  </defs>
  <title>cityN</title>
  <g id="Слой_2" data-name="Слой 2">
    <g id="UI-kit">
      <g id="Body">
        <path class="cls-1" d="M29.26616,4.62086V2.88856H30.3055V2.47464H28.80624V4.62086ZM21.07234,22.24881l-15.05146.03028L0,22.22014l5.15237-6.88483h0l-.29015.38763L14.02208,18.852a3.51744,3.51744,0,0,1-.64866-2.76653,23.07921,23.07921,0,0,0,2.42294-.56051l-.8166,2.80092.16015.04716v.00014l5.99456,2.02376v.00834h7.48037V7.757h1.21752l28.55689,9.44459c-.01721-.59928-.02584-1.32269-.02584-1.984V7.757h1.29524V22.22367H58.44107L29.88424,12.77892c.01729.59942.02591,1.32269.02591,1.984v5.64234h.00046v1.84353Zm-.8876-16.19794a4.34544,4.34544,0,0,0-.12482-.80956,2.60553,2.60553,0,0,1,.22249-.90243C20.93552,2.832,18.29367.9383,16.72072.5065c-6.609-1.73229-12.29106.88264-12.2,9.3343a.70468.70468,0,0,1-.02163.12369l-.16947.75075a7.29676,7.29676,0,0,0-.149,1.06212,3.7521,3.7521,0,0,0,.1022,1.06064,2.15908,2.15908,0,0,0,.21416.56083l.29206.43455a1.34674,1.34674,0,0,0,.11169.13049,1.07633,1.07633,0,0,0,.12758.11458l.16136.12932c.06483.04045.12207.078.17412.113.02491.01726.04991.03462.07591.05167a1.71555,1.71555,0,0,0,.51763.28618c2.08692.98017,6.15446,1.14016,10.33043-.28556-1.46471-.07653-2.11992-1.5965-1.80882-3.20643.34481-1.78453,1.0018-2.54806.681-4.50708-.02009-.12315-.03759-.247-.05892-.37a7.9976,7.9976,0,0,0-.24948-.986,17.21,17.21,0,0,1-.25607-3.311c0-.81148-.09969-1.06525.92635-.7812a4.89541,4.89541,0,0,1,3.74706,5.16508c0,.06787.01666.04.04571.07536l.00771.00839.00407.00429.71666.90585.01041.01378.022.02775.26752.36247a17.11545,17.11545,0,0,1,1.70105,2.68119c.45558,1.137-.93994.832-1.18692.63-.45289-.33488-2.33862-.22794-2.04372-.71639a.17611.17611,0,0,1,.08531-.08079c.1687-.0522.14279-.21794-.13631-.13437-.68929.20653-.174,1.133.77135.77553,1.09483-.02438,1.87837.95906,2.75627.35713.6339-.43471-1.21383-2.757-1.5241-3.32445.44534-.112,1.11616-.32868,1.65367-.52993A2.19354,2.19354,0,0,1,20.05976,5.2439a1.95827,1.95827,0,0,0,.125.807Zm-4.34512-.39933c3.79521-.85794,3.4047,1.72482,2.38761.77539-.8512-.7944-2.88958-.66195-2.38761-.77539Zm3.87563,5.48175c-.231-.12183-.95952-.1012-1.22308.85848-.05267.15777-.66171.20086-.63855.30819.72853.70577,2.87672-.631,1.86163-1.16667ZM15.817,14.807l.46009.15623c.05037.01262.06162.01813.1129.03242.84982.23465,2.83155.86184,3.58174.14882l.12533-.14111a.93308.93308,0,0,0,.15807-.77262,3.6786,3.6786,0,0,0-.13979-.46583c-.04708-.111-.19515-1.03672-.26768-1.50552l-.00192.00168-.00113.00108-.003.00275-.00313.00261-.003.00259-.0006.00062-.00253.00213-.003.00267-.003.00262-.00313.00275-.003.00258-.00313.00267-.00313.00262-.001.001-.002.00162-.00313.00267-.00313.00261-.00283.00251-.0003.00016-.00315.00259-.00305.00262-.00313.00267-.0017.00137-.00143.00122-.00315.00258-.00313.00254-.00329.00259-.00021.00032-.00292.00238-.003.0025-.00329.00262-.00216.00159-.001.00092-.00321.00258-.00315.00254-.00329.00259-.00076.00062-.00237.00191-.00321.00251-.00329.00262-.00259.002-.00062.00051-.00313.00246-.00329.00253-.00321.00251-.00129.001-.002.00154-.00329.00242-.00321.00254-.00329.00253h0l-.0032.00251-.00335.00245-.00329.00251-.00178.00124-.00151.00113-.00321.00254-.00337.00237-.00329.00251-.00046.00038-.00291.00207-.00329.00238-.00334.0025-.00221.00176-.001.00062-.00337.00253-.00329.00238-.00337.00234L19.67215,12.4l-.00345.00237-.00337.00237-.00283.00213-.00038.00025-.00334.00234-.00345.00237-.00337.00238-.00146.00116-.00189.00129-.00337.00237-.00337.00238c.08454.52221.15791.99576.28756,1.50527.07.27543.19065.48654.067.78235-.12145.29085-.23382.33214-.51733.45143a6.68115,6.68115,0,0,1-3.29614-.47055q-.18222.0602-.366.11712Zm1.873-7.315.01454-.058.00321-.02195a.40162.40162,0,0,0-.02988-.20408.32189.32189,0,0,1-.02241.14974.36334.36334,0,0,1-.036.06771l-.00475.00682-.00067.00084-.00437.006-.00137.00175-.00359.00488-.00213.00275-.00154.0017-.00437.00526-.00021.00038-.00237.00291-.00391.00437h0l-.00642.00709h0l-.00084.001-.00574.006h-.00014l-.00588.006-.00078.00078-.0052.00512-.00175.00168-.00451.00412-.00253.00221-.00372.00337-.0037.003-.0028.00245-.00453.00375-.002.00167-.0017.00124-.005.004-.00672.005h0l-.007.00512-.00092.00062-.006.00413-.002.00138-.00512.00334-.00666.00429-.00059.00037-.004.00254-.00323.002-.00526.00313-.00213.00122-.00637.00353-.00129.00059-.0075.00413h0l-.00771.00391-.01537.00749h-.0003l-.0032.00151-.00467.002-.0045.002-.00354.00138-.00571.00237-.00238.00092-.00045.00022-.00766.00283-.00817.00291-.00008.00016-.00826.00275-.00113.00038-.00728.00221-.00237.00076-.006.00175-.00359.001-.00488.00137-.00078.00024-.01634.00405-.00726.00162-.0014.00021-.00863.00175h0l-.00871.00162-.00725.00114-.00154.00024-.00237.00038-.00642.00091-.00375.00046-.00512.00062-.005.00068-.00391.00032-.00626.00067-.00259.00008L17.276,7.6115h-.00122l-.009.00052h0l-.009.00024h-.00124l-.00779.00016-.01634-.00024h-.00162l-.00512-.0003-.00389-.00008-.0065-.00038-.00267-.00024-.00765-.00067-.00138-.00008-.00895-.00092h0l-.009-.00108-.00137-.00013-.00154-.00025-.00871-.00129-.0065-.001L17.16255,7.605l-.00513-.00087-.00512-.001-.00391-.00092-.0065-.00137-.00251-.00062-.00773-.00175-.0013-.00038-.009-.00237a.37717.37717,0,0,1-.25776-.21764.43074.43074,0,0,0,.37563.385l.01063.00121.00021.00016.01017.00084.00078.00013.00971.00079h.00113l.00925.00046h.00154l.00887.00029h.01038l.008-.00016.00221-.00013h.0025l.00774-.00038.00275-.00025.00742-.00045.00313-.0003.00695-.00062.00338-.00038.00663-.00083.00375-.00054.00628-.00084.004-.00062.00588-.00108.00429-.00067.00116-.00033.0185-.0038.00121-.00038.00841-.00215.00084-.00014.00442-.00124.0055-.00153.004-.00106.00572-.00175.00116-.0004.00763-.00267.00138-.00038.00766-.00275.00145-.00046.00289-.00116.0065-.00251.00261-.001.0068-.00284.00221-.00091.00687-.00313.002-.00084.0072-.00337.00159-.00075.00742-.00375.00121-.00062.00766-.00413.00695-.00388.00168-.00094.0007-.00046.00793-.00464.00552-.00337.003-.00183.00008-.00017.008-.00525.00013-.00009.00774-.00544.00051-.00022.00728-.00534.00076-.0007.00687-.0052.001-.00076.0065-.00528.00113-.001.00621-.0051.00137-.00124L17.58,7.65972l.00159-.00151.00534-.00507.00191-.00167.005-.00488.002-.002.00482-.00488.00046-.00054.00572-.00628.0004-.00038.00526-.00588.00162-.00183.00526-.00628.00054-.0006.00482-.0059.00176-.00213.00512-.00672.00291-.00391.00275-.00388.00092-.00124.00442-.00634.0003-.00054.00437-.0065.00083-.00121.00308-.00491.002-.00329.00312-.00526.00186-.00307.00068-.00129a.425.425,0,0,0,.02087-.04212l.003-.00764.00062-.00153.00353-.00909.00288-.00841.00038-.001Zm-.54538-.28573c.02654.02341.01966.06558-.0155.09411a.09056.09056,0,0,1-.11145.009c-.02654-.02338-.0195-.06558.01559-.09409a.09052.09052,0,0,1,.11136-.009Zm.68283.21357c.37042-.11334-.04862-.85748-.75253-.70008-.32448.07254-.55784.32035-.30765.47705a.5019.5019,0,0,0-.01866.08941.54563.54563,0,0,0,.47872.59257.52325.52325,0,0,0,.59912-.44924l.001-.00971ZM1.41747,27.889V26.28183h.88186V27.889h.42379V25.89782H.9908V27.889Zm1.86791-1.99119V27.889h.42668v-.65416h.32426c.48079,0,.85907-.15362.85907-.66858s-.37828-.66845-.85907-.66845Zm1.17478.66845c0,.23328-.18482.29306-.404.29306H3.71206v-.586h.34413c.21915,0,.404.05687.404.29293Zm.747.32722A.9933.9933,0,0,0,6.2654,27.929a1.03571,1.03571,0,1,0,0-2.07093.99323.99323,0,0,0-1.05821,1.03542Zm1.67842,0a.59154.59154,0,0,1-.62021.64009.64032.64032,0,0,1,0-1.28017.59154.59154,0,0,1,.62021.64008Zm.88922-.99567V27.889H9.19435v-.37547H8.2015v-.44372h.89033v-.37255H8.2015v-.42393h.97581v-.37552ZM10.09217,27.889v-.81353h.32151l.54325.81353h.47214l-.68258-1.02113.64566-.97006H10.9171l-.50342.79082h-.32151v-.79082H9.66549V27.889Zm1.49805-1.99119v.384h.61149V27.889h.42393V26.28183h.61166v-.384Zm2.55331.99567a1.05851,1.05851,0,1,0,1.0583-1.03542.99333.99333,0,0,0-1.0583,1.03542Zm1.67845,0a.62182.62182,0,1,1-.62015-.64008.59154.59154,0,0,1,.62015.64008Zm2.20913-.99567V26.7h-.89326v-.8022h-.4266V27.889h.4266v-.80215h.89326V27.889h.42668V25.89782ZM20.266,28v-.25032c.59171-.02853.97847-.33556.97847-.85619s-.38676-.82781-.97847-.85634v-.25024h-.40963v.25024c-.59737.0257-.987.33289-.987.85634s.38968.83057.98705.85619V28Zm-.97-1.10651c0-.25318.14786-.47216.56038-.50075v1.00134c-.41252-.02836-.56038-.24743-.56038-.50059Zm.97-.50075c.40389.03134.5518.25035.5518.50075s-.14791.46934-.5518.50059V26.39274Zm3.30442,1.36549-.38685-.55188.38685-.55188h-.39826l-.367.515v.07392l.367.51488Zm-.64866,0h-.39831l-.36684-.51488v-.07392l.36684-.515h.39831l-.38693.55188.38693.55188Zm2.54774-.40972a.50561.50561,0,0,0-.39831-.51189.43916.43916,0,0,0,.3186-.4353c0-.36692-.3186-.54325-.785-.54325a1.68174,1.68174,0,0,0-.66.13078v.40681a1.36208,1.36208,0,0,1,.62288-.15357c.25326,0,.39542.06825.39542.22748,0,.13949-.12229.20769-.31.20769h-.41821l-.00275.37544h.44946c.1934,0,.35835.04848.35835.23331,0,.20477-.20761.259-.4238.259a1.50025,1.50025,0,0,1-.7055-.15365v.40956a2.13813,2.13813,0,0,0,.73678.12811c.3954,0,.82208-.13661.82208-.58049Zm.6304.5405.148-.37256h.91022l.14516.37256h.44088l-.81077-1.99119h-.46084L25.659,27.889Zm.55754-1.43932a.65879.65879,0,0,0,.04546-.15648.89638.89638,0,0,0,.04266.15648l.27885.714h-.64286l.27589-.714ZM30.28891,27.889V25.89782h-.42667v.89323a1.06563,1.06563,0,0,1-.39543.07966c-.23886,0-.40963-.09395-.40963-.31v-.66286H28.6305v.67708a.64372.64372,0,0,0,.72824.68557,1.65505,1.65505,0,0,0,.5035-.08537V27.889Zm.56229-1.99119V27.889h1.41944v-.37547H31.2778v-.44372h.8904v-.37255h-.8904v-.42393h.97572v-.37552Zm1.75392,1.0183A.998.998,0,0,0,33.68046,27.929a1.32268,1.32268,0,0,0,.57741-.12811V27.3827a.76851.76851,0,0,1-.512.165.63613.63613,0,0,1-.70261-.63161.6501.6501,0,0,1,.70261-.67983.83067.83067,0,0,1,.49784.15645V25.986a1.284,1.284,0,0,0-.569-.12795,1.0123,1.0123,0,0,0-1.06962,1.058Zm1.93052-1.0183v.384h.61158V27.889h.42393V26.28183h.6115v-.384Zm3.35272,0V26.7h-.89324v-.8022h-.42668V27.889h.42668v-.80215h.89324V27.889H38.315V25.89782Zm1.74,1.99119c.48066,0,.8591-.15357.8591-.66845s-.37844-.66554-.8591-.66845h-.32439v-.65429h-.42668V27.889Zm-.32439-.96151h.34427c.219,0,.40391.05978.40391.29306s-.1849.293-.40391.293h-.34427v-.586Zm1.7722.96151V25.89782h-.42659V27.889Zm.56221-1.99119V27.889H43.0578v-.37547h-.99288v-.44372h.89043v-.37255h-.89043v-.42393h.97581v-.37552Zm3.97861,1.45069a.50571.50571,0,0,0-.39834-.51189.4393.4393,0,0,0,.3186-.4353c0-.36692-.3186-.54325-.78516-.54325a1.68251,1.68251,0,0,0-.66.13078v.40681a1.36322,1.36322,0,0,1,.62312-.15357c.25318,0,.39534.06825.39534.22748,0,.13949-.12228.20769-.31.20769h-.41821l-.00288.37544h.44943c.19356,0,.35851.04848.35851.23331,0,.20477-.20761.259-.42393.259a1.50054,1.50054,0,0,1-.70544-.15365v.40956a2.13841,2.13841,0,0,0,.7367.12811c.39542,0,.82226-.13661.82226-.58049Zm.63029.5405.148-.37256h.91038l.14492.37256h.441l-.8107-1.99119H46.62L45.80643,27.889Zm.55762-1.43932a.66966.66966,0,0,0,.04555-.15648.85766.85766,0,0,0,.04266.15648l.27869.714h-.64284l.27594-.714ZM48.67551,27.889v-.81353h.32143l.54338.81353h.47225l-.68274-1.02113.64566-.97006h-.47505l-.5035.79082h-.32143v-.79082h-.42668V27.889Zm2.64155-.455.72262-1.53617h-.46931l-.43533,1.0241-.52343-1.0241h-.47208l.79365,1.40806-.03417.07124a.29642.29642,0,0,1-.30735.17924.75208.75208,0,0,1-.2304-.03708v.36126a1.1321,1.1321,0,0,0,.30156.04846c.25323,0,.47222-.10824.65424-.495Zm1.48953.455V26.28183h.88188V27.889h.42384V25.89782h-1.7324V27.889Zm2.29461,0v-.81353h.3214l.54341.81353h.47214l-.68266-1.02113.64569-.97006H55.9261l-.5035.79082h-.3214v-.79082h-.42668V27.889Zm3.421,0V25.89782H58.1211l-.92743,1.3c.00583-.08262.00858-.182.00858-.2731V25.89782h-.42668V27.889h.40114l.92735-1.3c-.00575.08256-.00858.18215-.00858.27318V27.889Zm1.48955-.13078.367-.51488v-.07392l-.367-.515h-.39831l.38691.55188-.38691.55188Zm-.64857,0h-.39831l.38693-.55188-.38693-.55188h.39831l.36681.515v.07392l-.36681.51488ZM35.37112,3.54776a1.14079,1.14079,0,0,0,2.281,0,1.14079,1.14079,0,0,0-2.281,0Zm1.809,0a.67024.67024,0,1,1-1.3399,0,.67024.67024,0,1,1,1.3399,0Zm5.79833-1.07312V4.62086h.45992V3.91571h.34956c.51809,0,.92589-.16554.92589-.72058,0-.55484-.4078-.72049-.92589-.72049Zm1.26627.72049c0,.25157-.19927.31585-.4353.31585h-.371V2.87937h.371c.236,0,.4353.06132.4353.31576Zm5.64509.35263a1.14081,1.14081,0,0,0,2.28107,0,1.1408,1.1408,0,0,0-2.28107,0Zm1.809,0a.67023.67023,0,1,1-1.33989,0,.67023.67023,0,1,1,1.33989,0Zm5.964,1.53914v-.466h1.51454v.466h.40481V4.21619h-.27286V2.47464H57.84983a3.66233,3.66233,0,0,1-.34039,1.74155H57.258V5.0869Zm.61632-2.19834h.57024V4.21619H57.997A3.52937,3.52937,0,0,0,58.27909,2.88856Z"/>
      </g>
    </g>
  </g>
</svg>
