<svg xmlns="http://www.w3.org/2000/svg" xmlns:xlink="http://www.w3.org/1999/xlink" viewBox="0 0 83.43625 29.83776">
  <defs>
    <style>
      .cls-1, .cls-2, .cls-3 {
        fill: none;
      }

      .cls-2 {
        clip-path: url(#clip-path);
      }

      .cls-2, .cls-3 {
        clip-rule: evenodd;
      }

      .cls-3 {
        clip-path: url(#clip-path-2);
      }

      .cls-4 {
        clip-path: url(#clip-path-10);
      }

      .cls-5 {
        fill: #e42119;
      }

      .cls-6 {
        clip-path: url(#clip-path-11);
      }

      .cls-7 {
        fill: #1d1d1b;
      }

      .cls-8 {
        clip-path: url(#clip-path-12);
      }

      .cls-9 {
        fill: #fff;
      }

      .cls-10 {
        clip-path: url(#clip-path-13);
      }

      .cls-11 {
        fill: #234483;
      }

      .cls-12 {
        clip-path: url(#clip-path-14);
      }

      .cls-13 {
        clip-path: url(#clip-path-15);
      }

      .cls-14 {
        fill: #3090bb;
      }

      .cls-15 {
        clip-path: url(#clip-path-16);
      }

      .cls-16 {
        clip-path: url(#clip-path-17);
      }

      .cls-17 {
        clip-path: url(#clip-path-18);
      }

      .cls-18 {
        clip-path: url(#clip-path-19);
      }
    </style>
    <clipPath id="clip-path">
      <rect class="cls-1" x="0.9396" y="0.9396" width="81.55705" height="28"/>
    </clipPath>
    <clipPath id="clip-path-2">
      <rect class="cls-1" x="0.9396" y="0.9396" width="81.55705" height="28"/>
    </clipPath>
    <clipPath id="clip-path-10">
      <rect class="cls-1" x="35.7047" y="10.71141" width="46.79195" height="9.95973"/>
    </clipPath>
    <clipPath id="clip-path-11">
      <path class="cls-3" d="M39.01916,6.12662l1.09529.0043a1.17709,1.17709,0,0,0,.35144-.05161.80525.80525,0,0,0,.28892-.157.774.774,0,0,0,.1962-.26021.94665.94665,0,0,0-.03018-.79569.77988.77988,0,0,0-.26735-.271,1.10339,1.10339,0,0,0-.36654-.13763,2.15662,2.15662,0,0,0-.40534-.03871,1.74793,1.74793,0,0,0-.45925.05377,1.29594,1.29594,0,0,0-.33635.13978,1.01154,1.01154,0,0,0-.23285.1914.96831.96831,0,0,0-.14446.21075.9349.9349,0,0,0-.07331.19785.68945.68945,0,0,0-.02156.14838H37.39348a2.11783,2.11783,0,0,1,.03234-.33118,1.77971,1.77971,0,0,1,.12721-.4172,1.95534,1.95534,0,0,1,.26951-.43871,1.74682,1.74682,0,0,1,.46356-.39569,2.64471,2.64471,0,0,1,.705-.286,3.93868,3.93868,0,0,1,.99395-.10968,3.029,3.029,0,0,1,1.0457.16129,2.201,2.201,0,0,1,.718.4129,1.613,1.613,0,0,1,.414.56128,1.52359,1.52359,0,0,1,.13368.60646,1.63183,1.63183,0,0,1-.041.35268,1.15227,1.15227,0,0,1-.15092.36129,1.31424,1.31424,0,0,1-.29754.32688,1.49071,1.49071,0,0,1-.48512.24516v.0172q.09486.02581.21992.06452a1.43615,1.43615,0,0,1,.25657.10968,1.40249,1.40249,0,0,1,.25873.18279,1.14148,1.14148,0,0,1,.22639.27957,1.59818,1.59818,0,0,1,.16171.40215,2.14115,2.14115,0,0,1,.06253.54838,1.7651,1.7651,0,0,1-.17681.77849,1.85323,1.85323,0,0,1-.5153.6387,2.55649,2.55649,0,0,1-.83656.43226,3.746,3.746,0,0,1-1.14056.15914,5.79286,5.79286,0,0,1-.65114-.03656,3.33132,3.33132,0,0,1-.61448-.12688,2.51958,2.51958,0,0,1-.54118-.23871,1.61242,1.61242,0,0,1-.72013-.89462,2.17626,2.17626,0,0,1-.10349-.70322H38.4284a.80822.80822,0,0,0,.07547.329.85838.85838,0,0,0,.24363.30968,1.34717,1.34717,0,0,0,.43984.2301,2.10654,2.10654,0,0,0,.65976.09033,1.98377,1.98377,0,0,0,.61664-.08388,1.18143,1.18143,0,0,0,.414-.22365.85223.85223,0,0,0,.23286-.31828,1.06578,1.06578,0,0,0-.028-.843.73726.73726,0,0,0-.25657-.27312.90526.90526,0,0,0-.33635-.12258,2.23965,2.23965,0,0,0-.34066-.02795H39.01916V6.12662Zm6.32163-2.58494h1.51357l2.24232,6.32255H47.65642L47.25108,8.561h-2.3415l-.43984,1.30322H43.0726l2.26819-6.32255Zm-.07762,3.92687h1.61706l-.78912-2.50321h-.01725l-.81069,2.50321Zm-6.244,16.6347,1.09529.0043a1.17709,1.17709,0,0,0,.35144-.05161.80525.80525,0,0,0,.28892-.157.774.774,0,0,0,.1962-.26021.94667.94667,0,0,0-.03018-.7957.77973.77973,0,0,0-.26735-.271,1.10319,1.10319,0,0,0-.36654-.13764,2.15662,2.15662,0,0,0-.40534-.03871,1.748,1.748,0,0,0-.45925.05376,1.29629,1.29629,0,0,0-.33635.13979,1.01179,1.01179,0,0,0-.23285.1914.96831.96831,0,0,0-.14446.21075.9349.9349,0,0,0-.07331.19785.68937.68937,0,0,0-.02156.14838H37.39348a2.11761,2.11761,0,0,1,.03234-.33118,1.77971,1.77971,0,0,1,.12721-.4172,1.95512,1.95512,0,0,1,.26951-.43871,1.74682,1.74682,0,0,1,.46356-.39569,2.64438,2.64438,0,0,1,.705-.286,3.93868,3.93868,0,0,1,.99395-.10968,3.02927,3.02927,0,0,1,1.0457.16129,2.201,2.201,0,0,1,.718.4129,1.613,1.613,0,0,1,.414.56128,1.52358,1.52358,0,0,1,.13368.60645,1.63171,1.63171,0,0,1-.041.35269,1.15237,1.15237,0,0,1-.15092.36129,1.31424,1.31424,0,0,1-.29754.32688,1.49071,1.49071,0,0,1-.48512.24516v.0172q.09486.02582.21992.06452a1.43754,1.43754,0,0,1,.25657.10967,1.403,1.403,0,0,1,.25873.1828,1.14129,1.14129,0,0,1,.22639.27957,1.59788,1.59788,0,0,1,.16171.40215,2.14115,2.14115,0,0,1,.06253.54838,1.76514,1.76514,0,0,1-.17681.77849,1.85326,1.85326,0,0,1-.5153.63871,2.55686,2.55686,0,0,1-.83656.43225A3.746,3.746,0,0,1,39.83848,28a5.79051,5.79051,0,0,1-.65114-.03656,3.33132,3.33132,0,0,1-.61448-.12688,2.52008,2.52008,0,0,1-.54118-.23871,1.61242,1.61242,0,0,1-.72013-.89462A2.17621,2.17621,0,0,1,37.20806,26H38.4284a.80834.80834,0,0,0,.07547.329.85844.85844,0,0,0,.24363.30967,1.34736,1.34736,0,0,0,.43984.23011,2.10686,2.10686,0,0,0,.65976.09032,1.98409,1.98409,0,0,0,.61664-.08387,1.18176,1.18176,0,0,0,.414-.22366.85223.85223,0,0,0,.23286-.31828,1.06578,1.06578,0,0,0-.028-.843.73726.73726,0,0,0-.25657-.27312.90526.90526,0,0,0-.33635-.12258,2.23965,2.23965,0,0,0-.34066-.02795H39.01916v-.96344Zm6.32163-2.58493h1.51357l2.24232,6.32254H47.65642l-.40534-1.30321h-2.3415l-.43984,1.30321H43.0726l2.26819-6.32254Zm-.07762,3.92685h1.61706l-.78912-2.5032h-.01725l-.81069,2.5032Zm4.77788-3.92685h1.32383v2.572l2.42344-2.572h1.71192l-2.5873,2.58923,2.73823,3.73331H53.97374l-1.962-2.8-.64683.65806v2.14192H50.04105V21.51832Zm6.76578,5.12255a1.06437,1.06437,0,0,0,.28892.129,1.3373,1.3373,0,0,0,.37085.04731.56878.56878,0,0,0,.42689-.15914.85878.85878,0,0,0,.21561-.4l-2.24663-4.73975h1.492l1.44026,3.39783,1.26347-3.39783h1.423L59.45881,26.185a4.40883,4.40883,0,0,1-.84087,1.36989A1.37162,1.37162,0,0,1,57.62614,28a2.26715,2.26715,0,0,1-.29969-.01721,1.659,1.659,0,0,1-.21992-.043q-.09272-.02581-.16387-.05162t-.13583-.04731v-1.2Zm5.3514-5.12255h5.14009v6.32254H65.97449V22.60649H63.48637v5.23437H62.15823V21.51832Zm6.52861,0h1.32383v2.572l2.42344-2.572H74.146l-2.5873,2.58923L74.297,27.84086H72.61953l-1.962-2.8-.64682.65806v2.14192H68.68684V21.51832Zm6.22675,0h1.2721v4.30535h.01724l2.50968-4.30535H80.0537v6.32254H78.7816V23.56132h-.01725L76.259,27.84086h-1.3454V21.51832Z"/>
    </clipPath>
    <clipPath id="clip-path-12">
      <path class="cls-3" d="M76.00223,12.5603h4.65224V13.638H77.27415v1.38871h3.10868v1.082H77.27415v1.5804h3.53122v1.13311H76.00223v-6.262Zm-8.33437,0h1.32367v2.46645h1.26331q.14227,0,.36432.00851a2.87037,2.87037,0,0,1,.47645.06177,2.45556,2.45556,0,0,1,.50877.16826,1.52282,1.52282,0,0,1,.46134.32588,1.59431,1.59431,0,0,1,.3363.53674,2.185,2.185,0,0,1,.12935.803,2.15429,2.15429,0,0,1-.12935.79659,1.658,1.658,0,0,1-.32983.5346,1.45657,1.45657,0,0,1-.44411.32375,2.43151,2.43151,0,0,1-.47427.16614,2.35845,2.35845,0,0,1-.42254.06176q-.19187.00852-.28241.00852h-2.781v-6.262Zm1.32367,5.18h1.121a2.82406,2.82406,0,0,0,.373-.02557,1.049,1.049,0,0,0,.35356-.11075.68322.68322,0,0,0,.26515-.25346.85138.85138,0,0,0,.10349-.44941.89517.89517,0,0,0-.10133-.46219.66432.66432,0,0,0-.26516-.25346,1.02017,1.02017,0,0,0-.36865-.1065,3.97762,3.97762,0,0,0-.41176-.0213H68.99153v1.68264Zm4.39785-5.18h1.32367v6.262H73.38938v-6.262Zm-12.20619,0h1.328v2.38124H64.999V12.5603h1.32367v6.262H64.999V16.02354H62.51116v2.79871h-1.328v-6.262Zm-5.91123,0h5.19118V13.638H58.52723v5.18421H57.20357V13.638H55.272V12.5603Zm-1.76777,2.0575q-.02588-.08946-.06467-.2066a1.35475,1.35475,0,0,0-.27379-.47071,1.03717,1.03717,0,0,0-.25224-.20448,1.40929,1.40929,0,0,0-.36216-.14483,1.96938,1.96938,0,0,0-.49585-.05538,1.61925,1.61925,0,0,0-.28456.02982,1.32282,1.32282,0,0,0-.33631.11288,1.49556,1.49556,0,0,0-.34061.23217,1.43024,1.43024,0,0,0-.29966.38978,2.36786,2.36786,0,0,0-.21343.58146,3.94935,3.94935,0,0,0,.02587,1.71671,2.02826,2.02826,0,0,0,.31044.67731,1.38624,1.38624,0,0,0,.48937.42386,1.40212,1.40212,0,0,0,.64889.147,1.56359,1.56359,0,0,0,.68124-.1278,1.28372,1.28372,0,0,0,.42038-.311,1.32252,1.32252,0,0,0,.235-.38339q.07761-.2002.12073-.3493h1.315A3.16341,3.16341,0,0,1,54.47,17.69553a2.51693,2.51693,0,0,1-.60793.71778,2.46594,2.46594,0,0,1-.80412.426,3.40188,3.40188,0,0,1-2.20324-.09159,2.48341,2.48341,0,0,1-.91837-.6624,2.91749,2.91749,0,0,1-.567-1.03727,4.44358,4.44358,0,0,1-.194-1.35676,4.51128,4.51128,0,0,1,.11211-1.04791,3.3229,3.3229,0,0,1,.31259-.8328,2.69458,2.69458,0,0,1,.47212-.63046,2.60783,2.60783,0,0,1,.59285-.43876,2.749,2.749,0,0,1,.67476-.25559,3.11952,3.11952,0,0,1,.71573-.08306,3.58964,3.58964,0,0,1,.91838.10649,2.76352,2.76352,0,0,1,.7028.28541,2.28724,2.28724,0,0,1,.51523.40894,2.4426,2.4426,0,0,1,.34925.475,2.21121,2.21121,0,0,1,.20264.48988,2.52867,2.52867,0,0,1,.08408.44942ZM43.622,12.5603h4.65223V13.638H44.89388v1.38871h3.10869v1.082H44.89388v1.5804H48.4251v1.13311H43.622v-6.262Zm-2.61285,3.75717q-.332.06816-.61225.10863t-.49368.05963q-.21342.01917-.35786.02556t-.2048.00639a3.556,3.556,0,0,1-.79765-.07667,1.92974,1.92974,0,0,1-.54327-.20447,1.075,1.075,0,0,1-.3363-.29819,1.33175,1.33175,0,0,1-.18109-.35357,1.51281,1.51281,0,0,1-.0733-.37061q-.01293-.18743-.01293-.35356V12.5603H38.6679v1.98508a1.72108,1.72108,0,0,0,.06037.50053.62469.62469,0,0,0,.194.30457.75351.75351,0,0,0,.34709.15123,2.83989,2.83989,0,0,0,.51954.04047q.125,0,.28673-.01065t.32768-.032q.166-.0213.32337-.05324t.28241-.07029V12.5603h1.32367v6.262H41.00911V16.31747Z"/>
    </clipPath>
    <clipPath id="clip-path-13">
      <path class="cls-3" d="M23.42217,27.32183l-.9373-.65619.43724-.62442.93779.65569-.43773.62492Zm-.2185.31222-.43749.62492-.938-.6562.43749-.62491.938.65619Zm.53134-.09382.65672-.93639-1.563-1.09447-.65623.93713-.3126-.21889-.219.31344.31235.21816-.65648.93762,1.56274,1.09324.65672-.93787.31211.21963.21874-.312-.3121-.21963Zm-.15642-2.43615.65647-.93786.3131.21889-.65624.93713-.31333-.21816Zm.62568.4373.87547-1.25008-.938-.65644-1.09422,1.56229,1.56323,1.09374.21875-.31271-.6252-.4368Zm1.34424-3.24967.93878.65643-.65722.93713-.9373-.65569.65574-.93787Zm1.46888.56262L25.45515,21.7606l-1.094,1.5623,1.562,1.09348,1.09421-1.562Zm1.09422-1.5618.21948-.31246-1.56249-1.094-.21874.3132.624.437-.65574.93762-.62569-.43754-.218.312,1.56224,1.09373.2185-.31222-.62446-.438.65624-.93713.6247.43779Zm.17243-2.90521-.31259-.21865L26.877,19.72974l.31284.21889.43823-.62492,1.24989.87558.21776-.3132-1.24965-.87361.438-.62516Z"/>
    </clipPath>
    <clipPath id="clip-path-14">
      <path class="cls-3" d="M15.60429,27.42968l-.65647.93737-.938-.65643.657-.93664.93754.6557Zm.5311-.09308L14.5729,26.24287l-1.09372,1.56156,1.562,1.09373,1.09421-1.56156Zm.12563-.84332-.31284-.21914.65648-.93712.31259.21914-.65623.93712Zm-.41483-1.402.35275-.50427-.31259-.21914-1.09348,1.562,1.562,1.09373,1.09347-1.56156-.9368-.65618-.21924.313-.13474.19132-.52173.74507-.31137-.2184.52173-.74557Zm3.66593-1.90947.21776-.31222-.62421-.43729-.21874.31221-1.25014-.87557-.21948.31246,1.25063.87508-.43773.62418-1.25039-.8741-.2185.312,1.24989.87509-.43748.62466-1.2499-.87484-.21923.31222,1.563,1.09422,1.53195-2.18721.31259.21914ZM18.918,21.37009l-.31211-.21865.87572-1.25008-.31334-.21816L18.07477,21.244l1.562,1.09447,1.094-1.56156-.31235-.21914-.875,1.24959-.31285-.21914.87547-1.24885-.3121-.21939-.876,1.25009Zm1.65757-3.03.31211.2184-.65624.93664-.31185-.21866.656-.93638Zm.84443.12434-.93828-.65545-1.094,1.56131,1.562,1.09373.21924-.31271-.62544-.43754L21.42,18.46439Zm1.40632-1.34316-.65673.93787-.93729-.65692.65647-.93713.93755.65618Zm.5306-.09331-1.562-1.094-1.09495,1.56131L22.26342,18.589l1.09347-1.56106Zm.12562-.84382-.93729-.65692.87448-1.2491-.3126-.21816-1.09372,1.5623,1.5625,1.093,1.09446-1.562-.31309-.2184-.87474,1.24934Zm2.18793-3.1236-.87571,1.24909-.93631-.65569.87424-1.2491-.3121-.21914-1.09422,1.5618L24.88883,14.84l1.09446-1.56058-.31285-.21889Zm.65673-.93689-.31235-.21889-.21924.31172-.93705-.65619-.21874.3127,1.56249,1.09374.218-.312-.31161-.21865.21849-.31246Zm-.0941-.53184-.31185-.2184-.21949.3127.31309.21865.21825-.31295Zm.84443.12508.2185-.31147-1.56249-1.09349-.21825.31148.3121.21865-.2185.3127.31236.21865.219-.31246.9373.65594Zm-.688-2.34307.21924-.31271-.31235-.21815-.21825.3127.31136.21816Zm1.24842.87828-.31259-.2184-.2185.312-.938-.65668-.2185.31222,1.56224,1.094.219-.31247-.31235-.21864.21875-.312Zm-.09312-.53135-.31284-.2189-.21973.31295.3131.2189.21947-.31295Zm1.06195-.18738L27.044,8.4396l-.21825.31246.3121.21938-.21849.31147.31259.2189.21776-.31221.93754.6557.21949-.312Zm.12858-.84627-.93877-.65644L28.67226,6.781l-.31235-.2184-1.0947,1.56131,1.563,1.09348,1.094-1.56155-.3121-.21865-.87473,1.24984Zm1.03115-3.46759.219-.31319-.31383-.21791-.21751.31295.31235.21815Zm.40621.74951-.31236-.21865-.43748.62517-.6252-.438-.21948.31173L30.14065,7.3439l.219-.31295-.6247-.4373.43774-.62467Zm.74959-.406-.21875.31246.31309.21914.21875-.31246L30.92227,5.563Zm-.53061.09381-.219.31221.31235.21915.21849-.31271-.31186-.21865Zm-.31235-.21816-.31284-.21914-.21923.31222.31308.21864.219-.31172ZM31.579,4.62533l-.31211-.21815-.21923.31271-.93828-.65644-.21776.31221,1.56273,1.09348.2185-.3127-.31309-.21815.21924-.313ZM31.48538,4.095l-.31259-.21914L30.9533,4.188l.31358.21914.2185-.31221Zm1.06244-.18763L30.98557,2.81386l-.219.31245.31285.21866-.21825.312.31161.2189.21923-.312.93755.65545.21825-.312Zm-.90577-2.03086.2185-.31295-.31284-.21815-.2185.3127.31284.2184Zm1.25039.87484-.31285-.21914-.21874.31246-.93779-.65644-.2185.31222,1.56249,1.09422.21875-.3127L32.673,3.064l.21949-.3127Zm-.0946-.53111-.31185-.2184-.219.31246.31259.21791.21825-.312ZM32.29828.9396l-.21924.312.31285.21914-.218.312.31211.21914.219-.31221.93631.65545.22-.31173L32.29828.9396Z"/>
    </clipPath>
    <clipPath id="clip-path-15">
      <path class="cls-2" d="M20.04543,27.28046l-1.563-1.09373-.21825.31345.62544.43681-.657.93712-.62519-.43754-.21826.312,1.562,1.094.21924-.312-.6247-.43828.65623-.93713.625.43779.21849-.31247Zm-.15519-2.43688.31211.2184-.65623.93787-.31236-.21914.65648-.93713Zm1.46864.56237-1.562-1.09348-1.09519,1.56131L20.26443,26.968l.21849-.31222-.62445-.43729.65672-.93714.62445.43656.21924-.312Zm-.15543-2.43688.31259.21939-.65721.93689-.31236-.2189.657-.93738Zm.84344.12533-.9373-.65644-1.09421,1.5628,1.56249,1.093.2185-.313-.6252-.43729.87572-1.2491Zm-.187-1.0632.65623-.93639.93754.65618-.656.93665-.93779-.65644Zm1.03066,1.188,1.09446-1.562L22.42255,20.5637,21.3276,22.125l1.563,1.09422ZM24.878,19.72161l-.65624.93714-.94-.65768.65647-.93712.93977.65766Zm.84245.12385.21825-.313-.62494-.4368-.21875.312-1.25014-.87435-1.094,1.56156,1.24989.87533-.219.31246.6247.43754.21874-.3132-.31234-.2184,1.09445-1.5623.31309.21914Zm1.1085-2.25L25.2672,16.502l-.219.313.62618.43729-.65722.93763-.62421-.43778-.21923.312,1.56249,1.094.21825-.313-.6247-.4368.65623-.93762.6247.43779.21825-.313ZM26.64322,16.534l.656-.93787.31284.21914-.65721.93688-.31161-.21815Zm.405.74951,1.0947-1.56156-.9368-.65692-.876,1.25056-.6252-.438-.21849.3127,1.56175,1.09324Zm1.31344-1.87426.21949-.313-1.56323-1.09323-.21776.312,1.5615,1.09423Zm-.46852-2.65652-.31235-.21791-.21924.312.31383.21915.21776-.3132Zm1.03213,1.188-.31309-.21914-.219.31246-.93706-.6557-.219.31221,1.563,1.094.21874-.3127-.3121-.21939.21849-.31172Zm-.09459-.53136-.31186-.21888-.219.3127.31235.2184.2185-.31222Zm-.49931-1.2811-.21924.313.31284.21865-.219.31246.31284.21816.2185-.31123.9373.6557.21948-.31222-1.56273-1.09447Z"/>
    </clipPath>
    <clipPath id="clip-path-16">
      <polyline class="cls-3" points="4.586 10.647 0.94 10.647 12.442 27.067 14.264 24.464 4.586 10.647"/>
    </clipPath>
    <clipPath id="clip-path-17">
      <polyline class="cls-3" points="8.231 10.647 4.586 10.647 14.264 24.464 16.088 21.863 8.231 10.647"/>
    </clipPath>
    <clipPath id="clip-path-18">
      <polyline class="cls-3" points="8.231 10.647 16.088 21.863 17.917 19.25 11.894 10.648 8.231 10.647"/>
    </clipPath>
    <clipPath id="clip-path-19">
      <polyline class="cls-3" points="11.889 10.647 17.914 19.247 18.221 18.808 12.506 10.647 11.889 10.647"/>
    </clipPath>
  </defs>
  <title>z4z</title>
  <g id="Слой_2" data-name="Слой 2">
    <g id="UI-kit">
      <g id="Body">
        <g>
          <g class="cls-4">
            <rect class="cls-5" x="34.76511" y="9.77181" width="48.67114" height="11.83893"/>
          </g>
          <g class="cls-6">
            <rect class="cls-7" x="36.26846" y="2.44295" width="44.72483" height="26.49665"/>
          </g>
          <g class="cls-8">
            <rect class="cls-9" x="36.45638" y="11.46308" width="45.28859" height="8.45638"/>
          </g>
          <g class="cls-10">
            <rect class="cls-11" x="20.35721" y="17.22908" width="9.6781" height="12.50058"/>
          </g>
          <g class="cls-12">
            <rect class="cls-5" x="12.53958" width="22.26128" height="29.83776"/>
          </g>
          <g class="cls-13">
            <rect class="cls-14" x="16.44963" y="11.18869" width="14.38404" height="18.59342"/>
          </g>
          <g class="cls-15">
            <rect class="cls-5" y="9.70765" width="15.20384" height="18.29893"/>
          </g>
          <g class="cls-16">
            <rect class="cls-14" x="3.64597" y="9.7079" width="13.38122" height="15.69609"/>
          </g>
          <g class="cls-17">
            <rect class="cls-9" x="7.29097" y="9.7079" width="11.56599" height="13.09448"/>
          </g>
          <g class="cls-18">
            <rect class="cls-11" x="10.94901" y="9.70765" width="8.21193" height="10.47933"/>
          </g>
        </g>
      </g>
    </g>
  </g>
</svg>
