<?xml version="1.0" encoding="utf-8"?>
<!-- Generator: Adobe Illustrator 23.0.1, SVG Export Plug-In . SVG Version: 6.00 Build 0)  -->
<svg version="1.1" id="Layer_1" xmlns="http://www.w3.org/2000/svg" xmlns:xlink="http://www.w3.org/1999/xlink" x="0px" y="0px"
	 viewBox="0 0 83.4 29.8" style="enable-background:new 0 0 83.4 29.8;" xml:space="preserve">
<style type="text/css">
	.st0{clip-path:url(#SVGID_2_);}
	.st1{fill:#E42119;}
	.st2{clip-path:url(#SVGID_5_);}
	.st3{clip-path:url(#SVGID_6_);}
	.st4{fill:#FFFFFF;}
	.st5{clip-path:url(#SVGID_9_);}
	.st6{clip-path:url(#SVGID_10_);}
	.st7{clip-path:url(#SVGID_13_);}
	.st8{clip-path:url(#SVGID_14_);}
	.st9{fill:#234483;}
	.st10{clip-path:url(#SVGID_17_);}
	.st11{clip-path:url(#SVGID_18_);}
	.st12{clip-path:url(#SVGID_21_);}
	.st13{clip-path:url(#SVGID_22_);}
	.st14{fill:#3090BB;}
	.st15{clip-path:url(#SVGID_25_);}
	.st16{clip-path:url(#SVGID_26_);}
	.st17{clip-path:url(#SVGID_29_);}
	.st18{clip-path:url(#SVGID_30_);}
	.st19{clip-path:url(#SVGID_33_);}
	.st20{clip-path:url(#SVGID_34_);}
	.st21{clip-path:url(#SVGID_37_);}
	.st22{clip-path:url(#SVGID_38_);}
</style>
<title>z4z</title>
<g id="Слой_2">
	<g id="UI-kit">
		<g id="Body">
			<g>
				<g>
					<defs>
						<rect id="SVGID_1_" x="35.7" y="10.7" width="46.8" height="10"/>
					</defs>
					<clipPath id="SVGID_2_">
						<use xlink:href="#SVGID_1_"  style="overflow:visible;"/>
					</clipPath>
					<g class="st0">
						<rect x="34.8" y="9.8" class="st1" width="48.7" height="11.8"/>
					</g>
				</g>
				<g>
					<defs>
						<rect id="SVGID_3_" x="0.9" y="0.9" width="81.6" height="28"/>
					</defs>
					<defs>
						<path id="SVGID_4_" d="M39,6.1l1.1,0c0.1,0,0.2,0,0.4-0.1c0.1,0,0.2-0.1,0.3-0.2c0.1-0.1,0.2-0.2,0.2-0.3
							c0.1-0.3,0.1-0.5,0-0.8c-0.1-0.1-0.2-0.2-0.3-0.3c-0.1-0.1-0.2-0.1-0.4-0.1c-0.1,0-0.3,0-0.4,0c-0.2,0-0.3,0-0.5,0.1
							c-0.1,0-0.2,0.1-0.3,0.1c-0.1,0.1-0.2,0.1-0.2,0.2c-0.1,0.1-0.1,0.1-0.1,0.2c0,0.1-0.1,0.1-0.1,0.2c0,0,0,0.1,0,0.1h-1.2
							c0-0.1,0-0.2,0-0.3c0-0.1,0.1-0.3,0.1-0.4c0.1-0.2,0.2-0.3,0.3-0.4C38,4,38.1,3.9,38.3,3.8c0.2-0.1,0.5-0.2,0.7-0.3
							c0.3-0.1,0.7-0.1,1-0.1c0.4,0,0.7,0,1,0.2c0.3,0.1,0.5,0.2,0.7,0.4c0.2,0.2,0.3,0.3,0.4,0.6c0.1,0.2,0.1,0.4,0.1,0.6
							c0,0.1,0,0.2,0,0.4c0,0.1-0.1,0.3-0.2,0.4C42,6,41.9,6.1,41.8,6.2c-0.1,0.1-0.3,0.2-0.5,0.2v0c0.1,0,0.1,0,0.2,0.1
							c0.1,0,0.2,0.1,0.3,0.1c0.1,0.1,0.2,0.1,0.3,0.2c0.1,0.1,0.2,0.2,0.2,0.3c0.1,0.1,0.1,0.3,0.2,0.4c0,0.2,0.1,0.4,0.1,0.5
							c0,0.3-0.1,0.5-0.2,0.8C42.2,9,42,9.3,41.8,9.4c-0.2,0.2-0.5,0.3-0.8,0.4C40.6,10,40.2,10,39.8,10c-0.2,0-0.4,0-0.7,0
							c-0.2,0-0.4-0.1-0.6-0.1c-0.2-0.1-0.4-0.1-0.5-0.2c-0.3-0.2-0.6-0.5-0.7-0.9c-0.1-0.2-0.1-0.5-0.1-0.7h1.2
							c0,0.1,0,0.2,0.1,0.3c0.1,0.1,0.1,0.2,0.2,0.3c0.1,0.1,0.3,0.2,0.4,0.2C39.4,9,39.6,9,39.8,9c0.2,0,0.4,0,0.6-0.1
							c0.2,0,0.3-0.1,0.4-0.2c0.1-0.1,0.2-0.2,0.2-0.3c0.1-0.3,0.1-0.6,0-0.8c-0.1-0.1-0.1-0.2-0.3-0.3c-0.1-0.1-0.2-0.1-0.3-0.1
							c-0.1,0-0.2,0-0.3,0H39V6.1z M45.3,3.5h1.5l2.2,6.3h-1.4l-0.4-1.3h-2.3l-0.4,1.3h-1.4L45.3,3.5L45.3,3.5z M45.3,7.5h1.6
							L46.1,5h0L45.3,7.5z M39,24.1l1.1,0c0.1,0,0.2,0,0.4-0.1c0.1,0,0.2-0.1,0.3-0.2c0.1-0.1,0.2-0.2,0.2-0.3
							c0.1-0.3,0.1-0.5,0-0.8c-0.1-0.1-0.2-0.2-0.3-0.3c-0.1-0.1-0.2-0.1-0.4-0.1c-0.1,0-0.3,0-0.4,0c-0.2,0-0.3,0-0.5,0.1
							c-0.1,0-0.2,0.1-0.3,0.1c-0.1,0.1-0.2,0.1-0.2,0.2c-0.1,0.1-0.1,0.1-0.1,0.2c0,0.1-0.1,0.1-0.1,0.2c0,0,0,0.1,0,0.1h-1.2
							c0-0.1,0-0.2,0-0.3c0-0.1,0.1-0.3,0.1-0.4c0.1-0.2,0.2-0.3,0.3-0.4c0.1-0.2,0.3-0.3,0.5-0.4c0.2-0.1,0.5-0.2,0.7-0.3
							c0.3-0.1,0.7-0.1,1-0.1c0.4,0,0.7,0,1,0.2c0.3,0.1,0.5,0.2,0.7,0.4c0.2,0.2,0.3,0.3,0.4,0.6c0.1,0.2,0.1,0.4,0.1,0.6
							c0,0.1,0,0.2,0,0.4c0,0.1-0.1,0.3-0.2,0.4c-0.1,0.1-0.2,0.2-0.3,0.3c-0.1,0.1-0.3,0.2-0.5,0.2v0c0.1,0,0.1,0,0.2,0.1
							c0.1,0,0.2,0.1,0.3,0.1c0.1,0.1,0.2,0.1,0.3,0.2c0.1,0.1,0.2,0.2,0.2,0.3c0.1,0.1,0.1,0.3,0.2,0.4c0,0.2,0.1,0.4,0.1,0.5
							c0,0.3-0.1,0.5-0.2,0.8c-0.1,0.2-0.3,0.5-0.5,0.6c-0.2,0.2-0.5,0.3-0.8,0.4C40.6,28,40.2,28,39.8,28c-0.2,0-0.4,0-0.7,0
							c-0.2,0-0.4-0.1-0.6-0.1c-0.2-0.1-0.4-0.1-0.5-0.2c-0.3-0.2-0.6-0.5-0.7-0.9c-0.1-0.2-0.1-0.5-0.1-0.7h1.2
							c0,0.1,0,0.2,0.1,0.3c0.1,0.1,0.1,0.2,0.2,0.3c0.1,0.1,0.3,0.2,0.4,0.2c0.2,0.1,0.4,0.1,0.7,0.1c0.2,0,0.4,0,0.6-0.1
							c0.2,0,0.3-0.1,0.4-0.2c0.1-0.1,0.2-0.2,0.2-0.3c0.1-0.3,0.1-0.6,0-0.8c-0.1-0.1-0.1-0.2-0.3-0.3c-0.1-0.1-0.2-0.1-0.3-0.1
							c-0.1,0-0.2,0-0.3,0H39L39,24.1L39,24.1z M45.3,21.5h1.5l2.2,6.3h-1.4l-0.4-1.3h-2.3l-0.4,1.3h-1.4
							C43.1,27.8,45.3,21.5,45.3,21.5z M45.3,25.4h1.6l-0.8-2.5h0L45.3,25.4z M50,21.5h1.3v2.6l2.4-2.6h1.7l-2.6,2.6l2.7,3.7H54
							L52,25l-0.6,0.7v2.1H50C50,27.8,50,21.5,50,21.5z M56.8,26.6c0.1,0.1,0.2,0.1,0.3,0.1c0.1,0,0.2,0,0.4,0c0.2,0,0.3,0,0.4-0.2
							c0.1-0.1,0.2-0.2,0.2-0.4l-2.2-4.7h1.5l1.4,3.4l1.3-3.4h1.4l-2,4.7c-0.2,0.5-0.5,1-0.8,1.4c-0.3,0.3-0.6,0.4-1,0.4
							c-0.1,0-0.2,0-0.3,0c-0.1,0-0.1,0-0.2,0c-0.1,0-0.1,0-0.2-0.1c0,0-0.1,0-0.1,0L56.8,26.6L56.8,26.6z M62.2,21.5h5.1v6.3H66
							v-5.2h-2.5v5.2h-1.3C62.2,27.8,62.2,21.5,62.2,21.5z M68.7,21.5H70v2.6l2.4-2.6h1.7l-2.6,2.6l2.7,3.7h-1.7l-2-2.8L70,25.7v2.1
							h-1.3C68.7,27.8,68.7,21.5,68.7,21.5z M74.9,21.5h1.3v4.3h0l2.5-4.3h1.3v6.3h-1.3v-4.3h0l-2.5,4.3h-1.3
							C74.9,27.8,74.9,21.5,74.9,21.5z"/>
					</defs>
					<clipPath id="SVGID_5_">
						<use xlink:href="#SVGID_3_"  style="overflow:visible;"/>
					</clipPath>
					<clipPath id="SVGID_6_" class="st2">
						<use xlink:href="#SVGID_4_"  style="overflow:visible;"/>
					</clipPath>
					<g class="st3">
						<rect x="36.3" y="2.4" class="st4" width="44.7" height="26.5"/>
					</g>
				</g>
				<g>
					<defs>
						<rect id="SVGID_7_" x="0.9" y="0.9" width="81.6" height="28"/>
					</defs>
					<defs>
						<path id="SVGID_8_" d="M76,12.6h4.7v1.1h-3.4V15h3.1v1.1h-3.1v1.6h3.5v1.1H76V12.6L76,12.6z M67.7,12.6H69V15h1.3
							c0.1,0,0.2,0,0.4,0c0.2,0,0.3,0,0.5,0.1c0.2,0,0.3,0.1,0.5,0.2c0.2,0.1,0.3,0.2,0.5,0.3c0.1,0.2,0.3,0.3,0.3,0.5
							c0.1,0.3,0.1,0.5,0.1,0.8c0,0.3,0,0.5-0.1,0.8c-0.1,0.2-0.2,0.4-0.3,0.5c-0.1,0.1-0.3,0.2-0.4,0.3c-0.2,0.1-0.3,0.1-0.5,0.2
							c-0.1,0-0.3,0.1-0.4,0.1c-0.1,0-0.2,0-0.3,0h-2.8L67.7,12.6L67.7,12.6z M69,17.7h1.1c0.1,0,0.2,0,0.4,0c0.1,0,0.2-0.1,0.4-0.1
							c0.1-0.1,0.2-0.1,0.3-0.3c0.1-0.1,0.1-0.3,0.1-0.4c0-0.2,0-0.3-0.1-0.5c-0.1-0.1-0.2-0.2-0.3-0.3c-0.1-0.1-0.2-0.1-0.4-0.1
							c-0.1,0-0.3,0-0.4,0H69V17.7z M73.4,12.6h1.3v6.3h-1.3C73.4,18.8,73.4,12.6,73.4,12.6z M61.2,12.6h1.3v2.4H65v-2.4h1.3v6.3H65
							V16h-2.5v2.8h-1.3L61.2,12.6L61.2,12.6z M55.3,12.6h5.2v1.1h-1.9v5.2h-1.3v-5.2h-1.9L55.3,12.6L55.3,12.6z M53.5,14.6
							c0-0.1,0-0.1-0.1-0.2c-0.1-0.2-0.2-0.3-0.3-0.5c-0.1-0.1-0.2-0.1-0.3-0.2c-0.1-0.1-0.2-0.1-0.4-0.1c-0.2,0-0.3-0.1-0.5-0.1
							c-0.1,0-0.2,0-0.3,0c-0.1,0-0.2,0.1-0.3,0.1c-0.1,0.1-0.2,0.1-0.3,0.2c-0.1,0.1-0.2,0.2-0.3,0.4c-0.1,0.2-0.2,0.4-0.2,0.6
							c-0.1,0.6-0.1,1.2,0,1.7c0.1,0.2,0.2,0.5,0.3,0.7c0.1,0.2,0.3,0.3,0.5,0.4c0.2,0.1,0.4,0.2,0.6,0.1c0.2,0,0.5,0,0.7-0.1
							c0.2-0.1,0.3-0.2,0.4-0.3c0.1-0.1,0.2-0.2,0.2-0.4c0.1-0.1,0.1-0.2,0.1-0.3h1.3c-0.1,0.4-0.2,0.7-0.4,1
							c-0.2,0.3-0.4,0.5-0.6,0.7c-0.2,0.2-0.5,0.3-0.8,0.4c-0.7,0.2-1.5,0.2-2.2-0.1c-0.4-0.1-0.7-0.4-0.9-0.7
							c-0.3-0.3-0.5-0.7-0.6-1c-0.1-0.4-0.2-0.9-0.2-1.4c0-0.4,0-0.7,0.1-1c0.1-0.3,0.2-0.6,0.3-0.8c0.1-0.2,0.3-0.4,0.5-0.6
							c0.2-0.2,0.4-0.3,0.6-0.4c0.2-0.1,0.4-0.2,0.7-0.3c0.2-0.1,0.5-0.1,0.7-0.1c0.3,0,0.6,0,0.9,0.1c0.2,0.1,0.5,0.2,0.7,0.3
							c0.2,0.1,0.4,0.2,0.5,0.4c0.1,0.1,0.3,0.3,0.3,0.5c0.1,0.2,0.2,0.3,0.2,0.5c0,0.1,0.1,0.3,0.1,0.4L53.5,14.6z M43.6,12.6h4.7
							v1.1h-3.4V15H48v1.1h-3.1v1.6h3.5v1.1h-4.8V12.6L43.6,12.6z M41,16.3c-0.2,0-0.4,0.1-0.6,0.1c-0.2,0-0.4,0-0.5,0.1
							c-0.1,0-0.3,0-0.4,0c-0.1,0-0.2,0-0.2,0c-0.3,0-0.5,0-0.8-0.1c-0.2,0-0.4-0.1-0.5-0.2c-0.1-0.1-0.2-0.2-0.3-0.3
							c-0.1-0.1-0.1-0.2-0.2-0.4c0-0.1-0.1-0.2-0.1-0.4c0-0.1,0-0.2,0-0.4v-2.3h1.3v2c0,0.2,0,0.3,0.1,0.5c0,0.1,0.1,0.2,0.2,0.3
							c0.1,0.1,0.2,0.1,0.3,0.2c0.2,0,0.3,0,0.5,0c0.1,0,0.2,0,0.3,0c0.1,0,0.2,0,0.3,0c0.1,0,0.2,0,0.3-0.1s0.2,0,0.3-0.1v-2.8h1.3
							v6.3H41L41,16.3L41,16.3z"/>
					</defs>
					<clipPath id="SVGID_9_">
						<use xlink:href="#SVGID_7_"  style="overflow:visible;"/>
					</clipPath>
					<clipPath id="SVGID_10_" class="st5">
						<use xlink:href="#SVGID_8_"  style="overflow:visible;"/>
					</clipPath>
					<g class="st6">
						<rect x="36.5" y="11.5" class="st4" width="45.3" height="8.5"/>
					</g>
				</g>
				<g>
					<defs>
						<rect id="SVGID_11_" x="0.9" y="0.9" width="81.6" height="28"/>
					</defs>
					<defs>
						<path id="SVGID_12_" d="M23.4,27.3l-0.9-0.7l0.4-0.6l0.9,0.7C23.9,26.7,23.4,27.3,23.4,27.3z M23.2,27.6l-0.4,0.6l-0.9-0.7
							l0.4-0.6L23.2,27.6z M23.7,27.5l0.7-0.9l-1.6-1.1l-0.7,0.9l-0.3-0.2l-0.2,0.3l0.3,0.2l-0.7,0.9l1.6,1.1l0.7-0.9l0.3,0.2
							l0.2-0.3L23.7,27.5L23.7,27.5z M23.6,25.1l0.7-0.9l0.3,0.2l-0.7,0.9C23.9,25.3,23.6,25.1,23.6,25.1z M24.2,25.5l0.9-1.3
							l-0.9-0.7L23,25.2l1.6,1.1l0.2-0.3L24.2,25.5L24.2,25.5z M25.5,22.3l0.9,0.7l-0.7,0.9l-0.9-0.7L25.5,22.3z M27,22.9l-1.6-1.1
							l-1.1,1.6l1.6,1.1L27,22.9L27,22.9z M28.1,21.3l0.2-0.3l-1.6-1.1l-0.2,0.3l0.6,0.4l-0.7,0.9l-0.6-0.4l-0.2,0.3l1.6,1.1
							l0.2-0.3l-0.6-0.4l0.7-0.9L28.1,21.3L28.1,21.3z M28.3,18.4L28,18.2l-1.1,1.6l0.3,0.2l0.4-0.6l1.2,0.9l0.2-0.3L27.8,19
							L28.3,18.4L28.3,18.4z"/>
					</defs>
					<clipPath id="SVGID_13_">
						<use xlink:href="#SVGID_11_"  style="overflow:visible;"/>
					</clipPath>
					<clipPath id="SVGID_14_" class="st7">
						<use xlink:href="#SVGID_12_"  style="overflow:visible;"/>
					</clipPath>
					<g class="st8">
						<rect x="20.4" y="17.2" class="st9" width="9.7" height="12.5"/>
					</g>
				</g>
				<g>
					<defs>
						<rect id="SVGID_15_" x="0.9" y="0.9" width="81.6" height="28"/>
					</defs>
					<defs>
						<path id="SVGID_16_" d="M15.6,27.4l-0.7,0.9L14,27.7l0.7-0.9L15.6,27.4L15.6,27.4z M16.1,27.3l-1.6-1.1l-1.1,1.6l1.6,1.1
							L16.1,27.3z M16.3,26.5l-0.3-0.2l0.7-0.9l0.3,0.2C16.9,25.6,16.3,26.5,16.3,26.5z M15.8,25.1l0.4-0.5l-0.3-0.2l-1.1,1.6
							l1.6,1.1l1.1-1.6l-0.9-0.7l-0.2,0.3l-0.1,0.2l-0.5,0.7l-0.3-0.2C15.3,25.8,15.8,25.1,15.8,25.1z M19.5,23.2l0.2-0.3l-0.6-0.4
							l-0.2,0.3l-1.3-0.9l-0.2,0.3l1.3,0.9l-0.4,0.6L17,22.8l-0.2,0.3L18,24l-0.4,0.6l-1.2-0.9l-0.2,0.3l1.6,1.1l1.5-2.2L19.5,23.2
							L19.5,23.2z M18.9,21.4l-0.3-0.2l0.9-1.3l-0.3-0.2l-1.1,1.6l1.6,1.1l1.1-1.6l-0.3-0.2l-0.9,1.2l-0.3-0.2l0.9-1.2l-0.3-0.2
							L18.9,21.4L18.9,21.4z M20.6,18.3l0.3,0.2l-0.7,0.9l-0.3-0.2L20.6,18.3L20.6,18.3z M21.4,18.5l-0.9-0.7l-1.1,1.6l1.6,1.1
							l0.2-0.3l-0.6-0.4L21.4,18.5L21.4,18.5z M22.8,17.1l-0.7,0.9l-0.9-0.7l0.7-0.9C21.9,16.5,22.8,17.1,22.8,17.1z M23.4,17
							l-1.6-1.1l-1.1,1.6l1.6,1.1L23.4,17L23.4,17z M23.5,16.2l-0.9-0.7l0.9-1.2l-0.3-0.2L22,15.6l1.6,1.1l1.1-1.6l-0.3-0.2
							L23.5,16.2L23.5,16.2z M25.7,13.1l-0.9,1.2l-0.9-0.7l0.9-1.2l-0.3-0.2l-1.1,1.6l1.6,1.1l1.1-1.6L25.7,13.1L25.7,13.1z
							 M26.3,12.1L26,11.9l-0.2,0.3l-0.9-0.7l-0.2,0.3l1.6,1.1l0.2-0.3l-0.3-0.2L26.3,12.1L26.3,12.1z M26.2,11.6l-0.3-0.2l-0.2,0.3
							l0.3,0.2L26.2,11.6z M27.1,11.7l0.2-0.3l-1.6-1.1l-0.2,0.3l0.3,0.2l-0.2,0.3l0.3,0.2l0.2-0.3L27.1,11.7L27.1,11.7z M26.4,9.4
							l0.2-0.3l-0.3-0.2l-0.2,0.3L26.4,9.4z M27.6,10.3L27.3,10l-0.2,0.3l-0.9-0.7L26,10l1.6,1.1l0.2-0.3l-0.3-0.2L27.6,10.3
							L27.6,10.3z M27.5,9.7l-0.3-0.2L27,9.8l0.3,0.2L27.5,9.7z M28.6,9.5L27,8.4l-0.2,0.3L27.1,9l-0.2,0.3l0.3,0.2l0.2-0.3l0.9,0.7
							L28.6,9.5L28.6,9.5z M28.7,8.7L27.8,8l0.9-1.2l-0.3-0.2l-1.1,1.6l1.6,1.1l1.1-1.6l-0.3-0.2L28.7,8.7L28.7,8.7z M29.8,5.2
							L30,4.9l-0.3-0.2L29.5,5C29.5,5,29.8,5.2,29.8,5.2z M30.2,6l-0.3-0.2l-0.4,0.6l-0.6-0.4l-0.2,0.3l1.6,1.1L30.4,7l-0.6-0.4
							L30.2,6L30.2,6z M30.9,5.6l-0.2,0.3L31,6.1l0.2-0.3L30.9,5.6L30.9,5.6z M30.4,5.7L30.2,6l0.3,0.2l0.2-0.3L30.4,5.7L30.4,5.7z
							 M30.1,5.4l-0.3-0.2l-0.2,0.3l0.3,0.2C29.9,5.8,30.1,5.4,30.1,5.4z M31.6,4.6l-0.3-0.2L31,4.7l-0.9-0.7l-0.2,0.3l1.6,1.1
							l0.2-0.3l-0.3-0.2L31.6,4.6L31.6,4.6z M31.5,4.1l-0.3-0.2L31,4.2l0.3,0.2L31.5,4.1L31.5,4.1z M32.5,3.9L31,2.8l-0.2,0.3
							l0.3,0.2l-0.2,0.3l0.3,0.2l0.2-0.3l0.9,0.7L32.5,3.9L32.5,3.9z M31.6,1.9l0.2-0.3l-0.3-0.2l-0.2,0.3L31.6,1.9z M32.9,2.8
							l-0.3-0.2l-0.2,0.3l-0.9-0.7l-0.2,0.3l1.6,1.1L33,3.3l-0.3-0.2L32.9,2.8L32.9,2.8z M32.8,2.2L32.5,2l-0.2,0.3l0.3,0.2
							L32.8,2.2L32.8,2.2z M32.3,0.9l-0.2,0.3l0.3,0.2l-0.2,0.3L32.5,2l0.2-0.3l0.9,0.7L33.9,2L32.3,0.9z"/>
					</defs>
					<clipPath id="SVGID_17_">
						<use xlink:href="#SVGID_15_"  style="overflow:visible;"/>
					</clipPath>
					<clipPath id="SVGID_18_" class="st10">
						<use xlink:href="#SVGID_16_"  style="overflow:visible;"/>
					</clipPath>
					<g class="st11">
						<rect x="12.5" class="st1" width="22.3" height="29.8"/>
					</g>
				</g>
				<g>
					<defs>
						<rect id="SVGID_19_" x="0.9" y="0.9" width="81.6" height="28"/>
					</defs>
					<defs>
						<path id="SVGID_20_" d="M20,27.3l-1.6-1.1l-0.2,0.3l0.6,0.4l-0.7,0.9l-0.6-0.4l-0.2,0.3l1.6,1.1l0.2-0.3l-0.6-0.4l0.7-0.9
							l0.6,0.4L20,27.3L20,27.3z M19.9,24.8l0.3,0.2L19.5,26l-0.3-0.2C19.2,25.8,19.9,24.8,19.9,24.8z M21.4,25.4l-1.6-1.1l-1.1,1.6
							l1.6,1.1l0.2-0.3l-0.6-0.4l0.7-0.9l0.6,0.4L21.4,25.4L21.4,25.4z M21.2,23l0.3,0.2l-0.7,0.9l-0.3-0.2L21.2,23L21.2,23z
							 M22,23.1l-0.9-0.7L20,24l1.6,1.1l0.2-0.3l-0.6-0.4L22,23.1L22,23.1z M21.9,22l0.7-0.9l0.9,0.7l-0.7,0.9L21.9,22L21.9,22z
							 M22.9,23.2l1.1-1.6l-1.6-1.1l-1.1,1.6L22.9,23.2L22.9,23.2z M24.9,19.7l-0.7,0.9L23.3,20l0.7-0.9
							C23.9,19.1,24.9,19.7,24.9,19.7z M25.7,19.8l0.2-0.3l-0.6-0.4l-0.2,0.3l-1.3-0.9l-1.1,1.6L24,21l-0.2,0.3l0.6,0.4l0.2-0.3
							l-0.3-0.2l1.1-1.6L25.7,19.8L25.7,19.8z M26.8,17.6l-1.6-1.1L25,16.8l0.6,0.4L25,18.2l-0.6-0.4l-0.2,0.3l1.6,1.1l0.2-0.3
							l-0.6-0.4l0.7-0.9l0.6,0.4L26.8,17.6L26.8,17.6z M26.6,16.5l0.7-0.9l0.3,0.2L27,16.8L26.6,16.5L26.6,16.5z M27,17.3l1.1-1.6
							l-0.9-0.7l-0.9,1.3l-0.6-0.4l-0.2,0.3L27,17.3L27,17.3z M28.4,15.4l0.2-0.3L27,14l-0.2,0.3L28.4,15.4z M27.9,12.8l-0.3-0.2
							l-0.2,0.3l0.3,0.2L27.9,12.8L27.9,12.8z M28.9,13.9l-0.3-0.2L28.4,14l-0.9-0.7l-0.2,0.3l1.6,1.1l0.2-0.3l-0.3-0.2L28.9,13.9
							L28.9,13.9z M28.8,13.4l-0.3-0.2l-0.2,0.3l0.3,0.2C28.6,13.7,28.8,13.4,28.8,13.4z M28.3,12.1l-0.2,0.3l0.3,0.2L28.2,13
							l0.3,0.2l0.2-0.3l0.9,0.7l0.2-0.3L28.3,12.1L28.3,12.1z"/>
					</defs>
					<clipPath id="SVGID_21_">
						<use xlink:href="#SVGID_19_"  style="overflow:visible;"/>
					</clipPath>
					<clipPath id="SVGID_22_" class="st12">
						<use xlink:href="#SVGID_20_"  style="overflow:visible;"/>
					</clipPath>
					<g class="st13">
						<rect x="16.4" y="11.2" class="st14" width="14.4" height="18.6"/>
					</g>
				</g>
				<g>
					<defs>
						<rect id="SVGID_23_" x="0.9" y="0.9" width="81.6" height="28"/>
					</defs>
					<defs>
						<polyline id="SVGID_24_" points="4.6,10.6 0.9,10.6 12.4,27.1 14.3,24.5 4.6,10.6 						"/>
					</defs>
					<clipPath id="SVGID_25_">
						<use xlink:href="#SVGID_23_"  style="overflow:visible;"/>
					</clipPath>
					<clipPath id="SVGID_26_" class="st15">
						<use xlink:href="#SVGID_24_"  style="overflow:visible;"/>
					</clipPath>
					<g class="st16">
						<rect y="9.7" class="st1" width="15.2" height="18.3"/>
					</g>
				</g>
				<g>
					<defs>
						<rect id="SVGID_27_" x="0.9" y="0.9" width="81.6" height="28"/>
					</defs>
					<defs>
						<polyline id="SVGID_28_" points="8.2,10.6 4.6,10.6 14.3,24.5 16.1,21.9 8.2,10.6 						"/>
					</defs>
					<clipPath id="SVGID_29_">
						<use xlink:href="#SVGID_27_"  style="overflow:visible;"/>
					</clipPath>
					<clipPath id="SVGID_30_" class="st17">
						<use xlink:href="#SVGID_28_"  style="overflow:visible;"/>
					</clipPath>
					<g class="st18">
						<rect x="3.6" y="9.7" class="st14" width="13.4" height="15.7"/>
					</g>
				</g>
				<g>
					<defs>
						<rect id="SVGID_31_" x="0.9" y="0.9" width="81.6" height="28"/>
					</defs>
					<defs>
						<polyline id="SVGID_32_" points="8.2,10.6 16.1,21.9 17.9,19.3 11.9,10.6 8.2,10.6 						"/>
					</defs>
					<clipPath id="SVGID_33_">
						<use xlink:href="#SVGID_31_"  style="overflow:visible;"/>
					</clipPath>
					<clipPath id="SVGID_34_" class="st19">
						<use xlink:href="#SVGID_32_"  style="overflow:visible;"/>
					</clipPath>
					<g class="st20">
						<rect x="7.3" y="9.7" class="st4" width="11.6" height="13.1"/>
					</g>
				</g>
				<g>
					<defs>
						<rect id="SVGID_35_" x="0.9" y="0.9" width="81.6" height="28"/>
					</defs>
					<defs>
						<polyline id="SVGID_36_" points="11.9,10.6 17.9,19.2 18.2,18.8 12.5,10.6 11.9,10.6 						"/>
					</defs>
					<clipPath id="SVGID_37_">
						<use xlink:href="#SVGID_35_"  style="overflow:visible;"/>
					</clipPath>
					<clipPath id="SVGID_38_" class="st21">
						<use xlink:href="#SVGID_36_"  style="overflow:visible;"/>
					</clipPath>
					<g class="st22">
						<rect x="10.9" y="9.7" class="st9" width="8.2" height="10.5"/>
					</g>
				</g>
			</g>
		</g>
	</g>
</g>
</svg>
