<svg xmlns="http://www.w3.org/2000/svg" viewBox="0 0 20.966 20.96594">
  <defs>
    <style>
      .cls-1 {
        fill: #fff;
      }

      .cls-2 {
        fill: #282423;
      }
    </style>
  </defs>
  <title>facebook</title>
  <g id="Слой_2" data-name="Слой 2">
    <g id="UI-kit">
      <g id="Body">
        <g>
          <path class="cls-1" d="M20.966,10.483a10.483,10.483,0,1,0-12.01916,10.358V13.86151H6.20551V10.68646H8.94684V8.34467a3.82718,3.82718,0,0,1,4.085-4.19776l2.45117.00372V7.11176h-.00122L13.80048,7.113c-1.3191,0-1.574.62683-1.574,1.54632v2.0271H15.371l-.00122,3.17633H12.22644v6.94654A10.477,10.477,0,0,0,20.966,10.483Z"/>
          <path class="cls-2" d="M15.36981,13.86279l.00122-3.17633H12.22644V8.65936c0-.91949.25494-1.54632,1.574-1.54632l1.68127-.00128H15.483V4.15063L13.0318,4.14691a3.82718,3.82718,0,0,0-4.085,4.19776v2.34179H6.20551v3.17505H8.94684v6.97943a10.50564,10.50564,0,0,0,1.53613.125,10.50729,10.50729,0,0,0,1.74347-.15661V13.86279Z"/>
        </g>
      </g>
    </g>
  </g>
</svg>
