<svg xmlns="http://www.w3.org/2000/svg" viewBox="0 0 14.97631 15">
  <defs>
    <style>
      .cls-1 {
        fill: #fff;
      }
    </style>
  </defs>
  <title>solorum</title>
  <g id="Слой_2" data-name="Слой 2">
    <g id="UI-kit">
      <g id="Body">
        <path class="cls-1" d="M14.67894,6.02885a5.94394,5.94394,0,0,0-.58978-1.17975,6.3617,6.3617,0,0,0-.803-1.00527,3.43773,3.43773,0,0,0-1.0649-1.97009A3.57968,3.57968,0,0,0,10.18,1.0092,2.33634,2.33634,0,0,0,9.71336.52948,2.29561,2.29561,0,0,0,7.38108.18684a1.80127,1.80127,0,0,0-.479.3482A1.57587,1.57587,0,0,0,6.44234.28022,2.15668,2.15668,0,0,0,4.60857.6288,3.365,3.365,0,0,0,3.893,1.259a5.44825,5.44825,0,0,0-.41223.61969,1.61032,1.61032,0,0,0-.42527-.01131A2.71915,2.71915,0,0,0,1.30227,3.24254,6.437,6.437,0,0,0,.5361,4.68076,7.58814,7.58814,0,0,0,.20554,9.23449a7.78227,7.78227,0,0,0,1.52124,3.03039,7.53194,7.53194,0,0,0,2.43351,1.94651,7.4438,7.4438,0,0,0,1.85141.63484A7.62215,7.62215,0,0,0,7.53715,15a7.42908,7.42908,0,0,0,1.0626-.07574,7.55729,7.55729,0,0,0,2.81776-1.01179,7.775,7.775,0,0,0,2.97153-3.368,6.75319,6.75319,0,0,0,.55488-1.92177A6.45931,6.45931,0,0,0,14.67894,6.02885Zm-1.92886,4.43736-.00652-.0558c-.00461-.03547-.02723-.23315-.04257-.50944,0-.00154-.00613-.12367-.008-.307,0-.00345-.00384-.34609.0161-.68124A11.53293,11.53293,0,0,1,12.971,7.42623c.04448-.20382.087-.3992.12117-.57233a12.3194,12.3194,0,0,0,.18522-1.35155,2.98984,2.98984,0,0,1,.05982-.45461,2.2406,2.2406,0,0,1,.49583.83885,4.56728,4.56728,0,0,1,.33286,1.14735,6.101,6.101,0,0,1-.22472,2.71153A6.37487,6.37487,0,0,1,12.84633,11.794a2.851,2.851,0,0,0,.00153-.44291C12.83329,11.16623,12.77232,10.65277,12.75008,10.46621ZM1.02387,9.07861A6.8924,6.8924,0,0,1,1.624,4.11744,3.56078,3.56078,0,0,1,2.63216,2.82686a.8242.8242,0,0,1,.44636-.15952.38136.38136,0,0,1,.11772.01725.336.336,0,0,1,.21053.23219,3.89,3.89,0,0,1-.30946,2.50638l-.02608.0742a15.25654,15.25654,0,0,0-.52766,1.73828,9.55109,9.55109,0,0,0-.237,1.89589,8.823,8.823,0,0,0,.07784,1.29614,6.17911,6.17911,0,0,0,.98169,2.435,7.20211,7.20211,0,0,1-1.74671-2.17717v-.00019A7.01743,7.01743,0,0,1,1.02387,9.07861Zm2.12329-.55795a8.90988,8.90988,0,0,1,.1764-1.06107A13.96864,13.96864,0,0,1,3.829,5.82236,5.4694,5.4694,0,0,0,4.29374,3.4617l-.02109-.20056a2.50345,2.50345,0,0,1,.07018-1.25587,1.6891,1.6891,0,0,1,1.41271-.9884l.02723.00038A1.23382,1.23382,0,0,1,6.886,2.04534,2.51235,2.51235,0,0,1,6.73646,3.3062c-.03144.10641-.06289.21321-.09088.32154-.10392.39651-.217.799-.33132,1.20621a14.68963,14.68963,0,0,0-.82984,6.23066,5.70763,5.70763,0,0,0,.372,1.313,4.052,4.052,0,0,0,1.00738,1.47561,3.79462,3.79462,0,0,0,.66379.48451c-.09586-.00364-.20822-.00958-.32211-.019a5.2136,5.2136,0,0,1-1.49363-.32518,3.51741,3.51741,0,0,1-.5476-.27189C3.39028,12.63743,2.96884,10.24226,3.14716,8.52066ZM7.6844,1.93951c-.01418-.12655-.03566-.23987-.0556-.34321-.04832-.2552-.06979-.3944.01189-.52268.16758-.26248.62237-.26785.63119-.26785A1.67177,1.67177,0,0,1,9.7728,2.08139a8.07924,8.07924,0,0,1-.31829,4.2598l-.08858.34954a18.65934,18.65934,0,0,0-.60243,3.38836c-.11274,1.80539.26613,3.03518,1.15732,3.74748A2.36285,2.36285,0,0,1,8.507,13.928a2.434,2.434,0,0,1-1.09021-.63963v-.00019a3.14144,3.14144,0,0,1-.7516-1.13259A7.55593,7.55593,0,0,1,6.3737,8.3619a23.75926,23.75926,0,0,1,.72246-3.38146l.03106-.11811c.14419-.54338.29336-1.10536.41147-1.66695L7.56975,3.05A3.43241,3.43241,0,0,0,7.6844,1.93951Zm2.7008,11.16671a1.02029,1.02029,0,0,1-.34819-.31387,3.69668,3.69668,0,0,1-.48164-2.4199,15.71287,15.71287,0,0,1,.45019-2.91209c.06941-.292.14381-.58039.2182-.86761a14.33967,14.33967,0,0,0,.54645-2.98495q.00633-.14322.00843-.28645c.00192-.11332-.00613-.23488-.01418-.35836a2.10253,2.10253,0,0,1,.01917-.6379c.05944-.22223.16374-.24753.19787-.25578a.28112.28112,0,0,1,.06481-.00709,1.40167,1.40167,0,0,1,.80874.48356,2.96639,2.96639,0,0,1,.71134,1.94267,8.68213,8.68213,0,0,1-.16681,1.902c-.046.24868-.10315.501-.16451.77078a9.50338,9.50338,0,0,0-.28338,2.06557,17.54783,17.54783,0,0,0,.143,1.99521,2.21218,2.21218,0,0,1-.26958,1.41578,1.2762,1.2762,0,0,1-.70444.53073A.9981.9981,0,0,1,10.3852,13.10622Z"/>
      </g>
    </g>
  </g>
</svg>
