<svg xmlns="http://www.w3.org/2000/svg" viewBox="0 0 20.96598 20.96598">
  <defs>
    <style>
      .cls-1 {
        fill: #fff;
      }

      .cls-2 {
        fill: #282423;
      }
    </style>
  </defs>
  <title>twitter</title>
  <g id="Слой_2" data-name="Слой 2">
    <g id="UI-kit">
      <g id="Body">
        <g>
          <circle class="cls-1" cx="10.48299" cy="10.48299" r="10.48299"/>
          <path class="cls-2" d="M15.86966,7.40644a4.41675,4.41675,0,0,1-1.26913.34927,2.22622,2.22622,0,0,0,.9729-1.2237,4.405,4.405,0,0,1-1.40719.5361,2.20948,2.20948,0,0,0-3.82,1.51235,2.29456,2.29456,0,0,0,.05638.5033A6.27441,6.27441,0,0,1,5.84619,6.77524a2.2097,2.2097,0,0,0,.68336,2.949,2.17614,2.17614,0,0,1-.999-.276V9.4751a2.2158,2.2158,0,0,0,1.77156,2.16965,2.28,2.28,0,0,1-.58153.07489,2.23343,2.23343,0,0,1-.41744-.0387A2.21745,2.21745,0,0,0,8.36762,13.216a4.44163,4.44163,0,0,1-2.74532.94341,4.74058,4.74058,0,0,1-.526-.02943,6.28552,6.28552,0,0,0,9.67505-5.29283L14.76465,8.551a4.45222,4.45222,0,0,0,1.105-1.14459Z"/>
        </g>
      </g>
    </g>
  </g>
</svg>
