<svg xmlns="http://www.w3.org/2000/svg" viewBox="0 0 20.96598 20.96598">
  <defs>
    <style>
      .cls-1 {
        fill: #fff;
      }

      .cls-2 {
        fill: #282423;
      }
    </style>
  </defs>
  <title>vkontakte</title>
  <g id="Слой_2" data-name="Слой 2">
    <g id="UI-kit">
      <g id="Body">
        <g>
          <circle class="cls-1" cx="10.48299" cy="10.48299" r="10.48299"/>
          <path class="cls-2" d="M6.36679,7.87393a9.78123,9.78123,0,0,0,1.40447,2.45753,1.31273,1.31273,0,0,0,.28343.25938.21481.21481,0,0,0,.36-.10707,3.07478,3.07478,0,0,0,.13-.74983c.00989-.50466-.00143-.83533-.02854-1.33939a.65431.65431,0,0,0-.60724-.69176c-.14659-.02646-.16015-.14724-.066-.26766a.93591.93591,0,0,1,.76564-.30642c.48024-.026.96212-.00478,1.44306,0a2.86558,2.86558,0,0,1,.58568.05966.5349.5349,0,0,1,.42765.47677,2.02913,2.02913,0,0,1,.02952.38523c-.01245.55076-.03895,1.10136-.04532,1.65184a2.887,2.887,0,0,0,.05933.64808c.06476.29318.26448.36685.46865.155a7.174,7.174,0,0,0,.70246-.87968,8.77046,8.77046,0,0,0,.93183-1.80657c.12968-.32667.22891-.39767.58028-.39845q.99079-.00239,1.98158,0a1.19029,1.19029,0,0,1,.35027.04671.30206.30206,0,0,1,.20862.38935,3.28624,3.28624,0,0,1-.58506,1.16074c-.40417.57041-.82782,1.12726-1.24143,1.69109a2.15384,2.15384,0,0,0-.14263.22634.46734.46734,0,0,0,.08167.66914c.35921.37053.74378.71717,1.09169,1.09774a6.48686,6.48686,0,0,1,.687.89356.506.506,0,0,1-.37644.84395c-.2978.04194-1.75234.00029-1.82747,0a1.42368,1.42368,0,0,1-1.00982-.40307c-.30707-.29559-.58605-.62-.88079-.92852a2.45365,2.45365,0,0,0-.28583-.25982c-.24121-.18391-.47792-.14308-.5905.14006a5.45273,5.45273,0,0,0-.18347.93644.49683.49683,0,0,1-.52124.48474,4.89853,4.89853,0,0,1-2.64925-.49891,5.6002,5.6002,0,0,1-1.75777-1.53576,18.56506,18.56506,0,0,1-1.9474-3.19826c-.02858-.05725-.595-1.26266-.6103-1.31958a.33892.33892,0,0,1,.15778-.43545c.10033-.03912,1.968,0,1.9991.00159a.64985.64985,0,0,1,.62684.45122Z"/>
        </g>
      </g>
    </g>
  </g>
</svg>
