<svg xmlns="http://www.w3.org/2000/svg" viewBox="0 0 20.96598 20.96598">
  <defs>
    <style>
      .cls-1 {
        fill: #fff;
      }

      .cls-2 {
        fill: #282423;
      }
    </style>
  </defs>
  <title>youtube</title>
  <g id="Слой_2" data-name="Слой 2">
    <g id="UI-kit">
      <g id="Body">
        <g>
          <circle class="cls-1" cx="10.48299" cy="10.48299" r="10.48299"/>
          <g>
            <path class="cls-2" d="M11.92787,13.0907a.58527.58527,0,0,0-.04644-.20655.22249.22249,0,0,0-.20018-.13678.34891.34891,0,0,0-.2731.10248.18284.18284,0,0,0-.04568.06819l.00164,2.20361v.0542l.02169.02874a.43675.43675,0,0,0,.23309.14316.22561.22561,0,0,0,.29806-.17843.53375.53375,0,0,0,.01235-.11106c.00076-.65614.002-1.31182-.00143-1.96756Zm0,0a.58527.58527,0,0,0-.04644-.20655.22249.22249,0,0,0-.20018-.13678.34891.34891,0,0,0-.2731.10248.18284.18284,0,0,0-.04568.06819l.00164,2.20361v.0542l.02169.02874a.43675.43675,0,0,0,.23309.14316.22561.22561,0,0,0,.29806-.17843.53375.53375,0,0,0,.01235-.11106c.00076-.65614.002-1.31182-.00143-1.96756Zm2.46758-3.32322q-3.91189-.08376-7.82512,0a1.66458,1.66458,0,0,0-1.62841,1.66429V15.505a1.66466,1.66466,0,0,0,1.62841,1.6647q3.91212.08376,7.82512,0a1.6647,1.6647,0,0,0,1.62861-1.6647V11.43177a1.66462,1.66462,0,0,0-1.62861-1.66429ZM7.33631,15.87624H6.58406v-4.2517H5.80553v-.71131H8.11642V11.623H7.33631Zm2.69142-1.76478v1.76519H9.36184v-.4035c-.02414.02572-.03766.03965-.05022.054a1.22277,1.22277,0,0,1-.51318.36783.62379.62379,0,0,1-.312.02812.384.384,0,0,1-.30183-.24.93265.93265,0,0,1-.069-.38416c-.00158-.48588-.00076-3.05752-.00076-3.08242h.66425c.00123.0225.00378,1.86844.00419,2.76879a.73884.73884,0,0,0,.01015.14694.16234.16234,0,0,0,.2335.1302.72419.72419,0,0,0,.32175-.25182.11557.11557,0,0,0,.01276-.06737V12.21249l.66629-.00158Zm2.53357,1.41231a.546.546,0,0,1-.56683.40132.7526.7526,0,0,1-.568-.25917l-.06435-.0686v.27851H10.6948v-4.963h.66732v1.63362a.66373.66373,0,0,1,.07175-.11387.767.767,0,0,1,.38437-.24422.57855.57855,0,0,1,.69161.3144,1.28891,1.28891,0,0,1,.10606.55743q.00175,1.0404.00041,2.081a1.217,1.217,0,0,1-.055.38257Zm2.46415-.13959a.81615.81615,0,0,1-.70477.5778,1.11434,1.11434,0,0,1-.63619-.065.883.883,0,0,1-.50456-.64256,1.93253,1.93253,0,0,1-.04864-.41448c-.00541-.54345-.00281-1.08731-.00163-1.63081a1.09764,1.09764,0,0,1,.263-.76393.97042.97042,0,0,1,.83075-.32042,1.15353,1.15353,0,0,1,.28989.05262.808.808,0,0,1,.55044.65374,1.96409,1.96409,0,0,1,.0367.36982c.00536.2899-.002.92884-.002.92884H13.82086v.91592a.29748.29748,0,1,0,.595,0V14.575h.68641a3.32864,3.32864,0,0,1-.07677.8092Zm-.60964-2.33635a.29748.29748,0,1,0-.595,0V13.562h.595Zm-2.53438-.16368a.22249.22249,0,0,0-.20018-.13678.34891.34891,0,0,0-.2731.10248.18284.18284,0,0,0-.04568.06819l.00164,2.20361v.0542l.02169.02874a.43829.43829,0,0,0,.23309.14336.22584.22584,0,0,0,.29806-.17848.53591.53591,0,0,0,.01235-.111c.00076-.65614.002-1.312-.00143-1.96776a.58527.58527,0,0,0-.04644-.20655Z"/>
            <path class="cls-2" d="M13.5868,5.05761l-.0002,3.68472h-.68279l.00077-.396c-.07533.07436-.13974.14393-.21073.20635a.922.922,0,0,1-.43383.22548A.43322.43322,0,0,1,11.7058,8.483a.97693.97693,0,0,1-.04425-.27494V5.05761h.67763V7.8675a.63.63,0,0,0,.0096.11146.15388.15388,0,0,0,.21768.13158.72779.72779,0,0,0,.32756-.252A.12068.12068,0,0,0,12.90417,7.79V5.05761Z"/>
            <path class="cls-2" d="M7.93957,5.698c-.14811-.6248-.45872-1.94362-.45872-1.94362h-.777s.59688,1.97971.86386,2.86251A.34766.34766,0,0,1,7.5819,6.717L7.58149,8.74152H8.298L8.29765,6.717a.35329.35329,0,0,1,.01414-.10008c.26693-.8828.86387-2.86251.86387-2.86251h-.777S8.08809,5.07318,7.94,5.698Z"/>
            <path class="cls-2" d="M10.11067,4.96533a.97762.97762,0,0,0-.97748.97768V7.85632a.97758.97758,0,0,0,1.95516,0V5.943a.97766.97766,0,0,0-.97768-.97768ZM10.393,7.895a.28209.28209,0,0,1-.56417,0V5.90433a.28209.28209,0,1,1,.56417,0Z"/>
          </g>
        </g>
      </g>
    </g>
  </g>
</svg>
