<?xml version="1.0" encoding="utf-8"?>
<!-- Generator: Adobe Illustrator 23.0.1, SVG Export Plug-In . SVG Version: 6.00 Build 0)  -->
<svg version="1.1" id="Layer_1" xmlns="http://www.w3.org/2000/svg" xmlns:xlink="http://www.w3.org/1999/xlink" x="0px" y="0px"
	 viewBox="0 0 81.6 28" style="enable-background:new 0 0 81.6 28;" xml:space="preserve">
<style type="text/css">
	.st0{clip-path:url(#XMLID_2_);fill:#E42119;}
	.st1{clip-path:url(#XMLID_3_);}
	.st2{clip-path:url(#XMLID_4_);fill:#1D1D1B;}
	.st3{clip-path:url(#XMLID_5_);}
	.st4{clip-path:url(#XMLID_6_);fill:#FFFFFF;}
	.st5{clip-path:url(#XMLID_7_);}
	.st6{clip-path:url(#XMLID_8_);fill:#234483;}
	.st7{clip-path:url(#XMLID_9_);}
	.st8{clip-path:url(#XMLID_10_);fill:#E42119;}
	.st9{clip-path:url(#XMLID_11_);}
	.st10{clip-path:url(#XMLID_12_);fill:#3090BB;}
	.st11{clip-path:url(#XMLID_13_);}
	.st12{clip-path:url(#XMLID_14_);fill:#E42119;}
	.st13{clip-path:url(#XMLID_15_);}
	.st14{clip-path:url(#XMLID_16_);fill:#3090BB;}
	.st15{clip-path:url(#XMLID_17_);}
	.st16{clip-path:url(#XMLID_18_);fill:#FFFFFF;}
	.st17{clip-path:url(#XMLID_19_);}
	.st18{clip-path:url(#XMLID_20_);fill:#234483;}
</style>
<g>
	<g id="XMLID_1935_">
		<g id="XMLID_2050_">
			<defs>
				<rect id="XMLID_2051_" x="34.8" y="9.8" width="46.8" height="10"/>
			</defs>
			<clipPath id="XMLID_2_">
				<use xlink:href="#XMLID_2051_"  style="overflow:visible;"/>
			</clipPath>
			<rect id="XMLID_2052_" x="33.8" y="8.8" class="st0" width="48.7" height="11.8"/>
		</g>
		<g id="XMLID_2035_">
			<defs>
				<rect id="XMLID_2048_" width="81.6" height="28"/>
			</defs>
			<defs>
				<path id="XMLID_2036_" d="M38.1,5.2l1.1,0c0.1,0,0.2,0,0.4-0.1c0.1,0,0.2-0.1,0.3-0.2C39.9,4.9,40,4.8,40,4.7
					c0-0.1,0.1-0.2,0.1-0.4c0-0.2,0-0.3-0.1-0.4c-0.1-0.1-0.2-0.2-0.3-0.3c-0.1-0.1-0.2-0.1-0.4-0.1c-0.1,0-0.3,0-0.4,0
					c-0.2,0-0.3,0-0.5,0.1c-0.1,0-0.2,0.1-0.3,0.1c-0.1,0.1-0.2,0.1-0.2,0.2c-0.1,0.1-0.1,0.1-0.1,0.2c0,0.1-0.1,0.1-0.1,0.2
					c0,0.1,0,0.1,0,0.1h-1.2c0-0.1,0-0.2,0-0.3c0-0.1,0.1-0.3,0.1-0.4c0.1-0.1,0.2-0.3,0.3-0.4C37,3.1,37.2,3,37.3,2.8
					c0.2-0.1,0.4-0.2,0.7-0.3c0.3-0.1,0.6-0.1,1-0.1c0.4,0,0.8,0.1,1,0.2c0.3,0.1,0.5,0.2,0.7,0.4c0.2,0.2,0.3,0.4,0.4,0.6
					c0.1,0.2,0.1,0.4,0.1,0.6c0,0.1,0,0.2,0,0.4s-0.1,0.2-0.2,0.4C41.1,5,41,5.1,40.9,5.2c-0.1,0.1-0.3,0.2-0.5,0.2v0
					c0.1,0,0.1,0,0.2,0.1c0.1,0,0.2,0.1,0.3,0.1c0.1,0,0.2,0.1,0.3,0.2c0.1,0.1,0.2,0.2,0.2,0.3c0.1,0.1,0.1,0.2,0.2,0.4
					c0,0.2,0.1,0.3,0.1,0.5c0,0.3-0.1,0.5-0.2,0.8c-0.1,0.2-0.3,0.5-0.5,0.6c-0.2,0.2-0.5,0.3-0.8,0.4c-0.3,0.1-0.7,0.2-1.1,0.2
					c-0.2,0-0.4,0-0.7,0S37.8,9,37.6,8.9c-0.2-0.1-0.4-0.1-0.5-0.2s-0.3-0.2-0.4-0.4c-0.1-0.1-0.2-0.3-0.3-0.5
					c-0.1-0.2-0.1-0.4-0.1-0.7h1.2c0,0.1,0,0.2,0.1,0.3c0.1,0.1,0.1,0.2,0.2,0.3s0.3,0.2,0.4,0.2C38.4,8,38.6,8,38.9,8
					c0.2,0,0.4,0,0.6-0.1c0.2-0.1,0.3-0.1,0.4-0.2c0.1-0.1,0.2-0.2,0.2-0.3c0-0.1,0.1-0.2,0.1-0.4c0-0.2,0-0.4-0.1-0.5
					c-0.1-0.1-0.2-0.2-0.3-0.3s-0.2-0.1-0.3-0.1c-0.1,0-0.2,0-0.3,0h-1.1V5.2L38.1,5.2z M44.4,2.6h1.5l2.2,6.3h-1.4l-0.4-1.3H44
					l-0.4,1.3h-1.4L44.4,2.6L44.4,2.6z M44.3,6.5h1.6L45.2,4h0L44.3,6.5L44.3,6.5z M38.1,23.2l1.1,0c0.1,0,0.2,0,0.4-0.1
					c0.1,0,0.2-0.1,0.3-0.2c0.1-0.1,0.1-0.2,0.2-0.3c0-0.1,0.1-0.2,0.1-0.4c0-0.2,0-0.3-0.1-0.4c-0.1-0.1-0.2-0.2-0.3-0.3
					s-0.2-0.1-0.4-0.1c-0.1,0-0.3,0-0.4,0c-0.2,0-0.3,0-0.5,0.1c-0.1,0-0.2,0.1-0.3,0.1c-0.1,0.1-0.2,0.1-0.2,0.2
					c-0.1,0.1-0.1,0.1-0.1,0.2c0,0.1-0.1,0.1-0.1,0.2c0,0.1,0,0.1,0,0.1h-1.2c0-0.1,0-0.2,0-0.3c0-0.1,0.1-0.3,0.1-0.4
					s0.2-0.3,0.3-0.4c0.1-0.1,0.3-0.3,0.5-0.4c0.2-0.1,0.4-0.2,0.7-0.3c0.3-0.1,0.6-0.1,1-0.1c0.4,0,0.8,0.1,1,0.2
					c0.3,0.1,0.5,0.2,0.7,0.4c0.2,0.2,0.3,0.4,0.4,0.6c0.1,0.2,0.1,0.4,0.1,0.6c0,0.1,0,0.2,0,0.4c0,0.1-0.1,0.2-0.2,0.4
					c-0.1,0.1-0.2,0.2-0.3,0.3c-0.1,0.1-0.3,0.2-0.5,0.2v0c0.1,0,0.1,0,0.2,0.1c0.1,0,0.2,0.1,0.3,0.1c0.1,0,0.2,0.1,0.3,0.2
					c0.1,0.1,0.2,0.2,0.2,0.3c0.1,0.1,0.1,0.2,0.2,0.4c0,0.2,0.1,0.3,0.1,0.5c0,0.3-0.1,0.5-0.2,0.8c-0.1,0.2-0.3,0.5-0.5,0.6
					c-0.2,0.2-0.5,0.3-0.8,0.4s-0.7,0.2-1.1,0.2c-0.2,0-0.4,0-0.7,0c-0.2,0-0.4-0.1-0.6-0.1c-0.2-0.1-0.4-0.1-0.5-0.2
					c-0.2-0.1-0.3-0.2-0.4-0.4c-0.1-0.1-0.2-0.3-0.3-0.5c-0.1-0.2-0.1-0.4-0.1-0.7h1.2c0,0.1,0,0.2,0.1,0.3c0.1,0.1,0.1,0.2,0.2,0.3
					s0.3,0.2,0.4,0.2c0.2,0.1,0.4,0.1,0.7,0.1c0.2,0,0.4,0,0.6-0.1c0.2-0.1,0.3-0.1,0.4-0.2c0.1-0.1,0.2-0.2,0.2-0.3
					c0-0.1,0.1-0.2,0.1-0.4c0-0.2,0-0.4-0.1-0.5c-0.1-0.1-0.2-0.2-0.3-0.3c-0.1-0.1-0.2-0.1-0.3-0.1c-0.1,0-0.2,0-0.3,0h-1.1V23.2
					L38.1,23.2z M44.4,20.6h1.5l2.2,6.3h-1.4l-0.4-1.3H44l-0.4,1.3h-1.4L44.4,20.6L44.4,20.6z M44.3,24.5h1.6L45.2,22h0L44.3,24.5
					L44.3,24.5z M49.1,20.6h1.3v2.6l2.4-2.6h1.7L52,23.2l2.7,3.7H53l-2-2.8l-0.6,0.7v2.1h-1.3V20.6L49.1,20.6z M55.9,25.7
					c0.1,0.1,0.2,0.1,0.3,0.1c0.1,0,0.2,0,0.4,0c0.2,0,0.3-0.1,0.4-0.2c0.1-0.1,0.2-0.2,0.2-0.4l-2.2-4.7h1.5l1.4,3.4l1.3-3.4h1.4
					l-2,4.7c-0.3,0.6-0.5,1.1-0.8,1.4c-0.3,0.3-0.6,0.4-1,0.4c-0.1,0-0.2,0-0.3,0c-0.1,0-0.2,0-0.2,0c-0.1,0-0.1,0-0.2-0.1
					c0,0-0.1,0-0.1,0V25.7L55.9,25.7z M61.2,20.6h5.1v6.3H65v-5.2h-2.5v5.2h-1.3V20.6L61.2,20.6z M67.7,20.6h1.3v2.6l2.4-2.6h1.7
					l-2.6,2.6l2.7,3.7h-1.7l-2-2.8l-0.6,0.7v2.1h-1.3V20.6L67.7,20.6z M74,20.6h1.3v4.3h0l2.5-4.3h1.3v6.3h-1.3v-4.3h0l-2.5,4.3H74
					V20.6L74,20.6z"/>
			</defs>
			<clipPath id="XMLID_3_">
				<use xlink:href="#XMLID_2048_"  style="overflow:visible;"/>
			</clipPath>
			<clipPath id="XMLID_4_" class="st1">
				<use xlink:href="#XMLID_2036_"  style="overflow:visible;"/>
			</clipPath>
			<rect id="XMLID_2049_" x="35.3" y="1.5" class="st2" width="44.7" height="26.5"/>
		</g>
		<g id="XMLID_2022_">
			<defs>
				<rect id="XMLID_2033_" width="81.6" height="28"/>
			</defs>
			<defs>
				<path id="XMLID_2023_" d="M75.1,11.6h4.7v1.1h-3.4v1.4h3.1v1.1h-3.1v1.6h3.5v1.1h-4.8V11.6L75.1,11.6z M66.7,11.6h1.3v2.5h1.3
					c0.1,0,0.2,0,0.4,0c0.1,0,0.3,0,0.5,0.1c0.2,0,0.3,0.1,0.5,0.2c0.2,0.1,0.3,0.2,0.5,0.3c0.1,0.1,0.3,0.3,0.3,0.5
					c0.1,0.2,0.1,0.5,0.1,0.8c0,0.3,0,0.6-0.1,0.8c-0.1,0.2-0.2,0.4-0.3,0.5c-0.1,0.1-0.3,0.2-0.4,0.3c-0.2,0.1-0.3,0.1-0.5,0.2
					c-0.2,0-0.3,0.1-0.4,0.1c-0.1,0-0.2,0-0.3,0h-2.8V11.6L66.7,11.6z M68.1,16.8h1.1c0.1,0,0.2,0,0.4,0c0.1,0,0.2-0.1,0.4-0.1
					c0.1-0.1,0.2-0.1,0.3-0.3c0.1-0.1,0.1-0.3,0.1-0.4c0-0.2,0-0.4-0.1-0.5c-0.1-0.1-0.2-0.2-0.3-0.3c-0.1-0.1-0.2-0.1-0.4-0.1
					c-0.1,0-0.3,0-0.4,0h-1.1V16.8L68.1,16.8z M72.4,11.6h1.3v6.3h-1.3V11.6L72.4,11.6z M60.2,11.6h1.3V14h2.5v-2.4h1.3v6.3h-1.3
					v-2.8h-2.5v2.8h-1.3V11.6L60.2,11.6z M54.3,11.6h5.2v1.1h-1.9v5.2h-1.3v-5.2h-1.9V11.6L54.3,11.6z M52.6,13.7
					c0-0.1,0-0.1-0.1-0.2c0-0.1-0.1-0.2-0.1-0.2c0-0.1-0.1-0.2-0.2-0.2c-0.1-0.1-0.2-0.1-0.3-0.2c-0.1-0.1-0.2-0.1-0.4-0.1
					c-0.1,0-0.3-0.1-0.5-0.1c-0.1,0-0.2,0-0.3,0c-0.1,0-0.2,0.1-0.3,0.1c-0.1,0.1-0.2,0.1-0.3,0.2c-0.1,0.1-0.2,0.2-0.3,0.4
					c-0.1,0.2-0.2,0.4-0.2,0.6c-0.1,0.2-0.1,0.5-0.1,0.8c0,0.3,0,0.6,0.1,0.9c0.1,0.3,0.2,0.5,0.3,0.7c0.1,0.2,0.3,0.3,0.5,0.4
					c0.2,0.1,0.4,0.1,0.6,0.1c0.3,0,0.5,0,0.7-0.1c0.2-0.1,0.3-0.2,0.4-0.3c0.1-0.1,0.2-0.2,0.2-0.4c0.1-0.1,0.1-0.2,0.1-0.3h1.3
					c-0.1,0.4-0.2,0.7-0.4,1c-0.2,0.3-0.4,0.5-0.6,0.7c-0.2,0.2-0.5,0.3-0.8,0.4c-0.3,0.1-0.6,0.1-1,0.1c-0.5,0-0.9-0.1-1.3-0.2
					c-0.4-0.2-0.7-0.4-0.9-0.7c-0.2-0.3-0.4-0.6-0.6-1c-0.1-0.4-0.2-0.9-0.2-1.4c0-0.4,0-0.7,0.1-1c0.1-0.3,0.2-0.6,0.3-0.8
					c0.1-0.2,0.3-0.5,0.5-0.6c0.2-0.2,0.4-0.3,0.6-0.4c0.2-0.1,0.4-0.2,0.7-0.3c0.2-0.1,0.5-0.1,0.7-0.1c0.3,0,0.7,0,0.9,0.1
					c0.3,0.1,0.5,0.2,0.7,0.3c0.2,0.1,0.4,0.3,0.5,0.4c0.1,0.2,0.3,0.3,0.3,0.5c0.1,0.2,0.2,0.3,0.2,0.5c0,0.2,0.1,0.3,0.1,0.4H52.6
					L52.6,13.7z M42.7,11.6h4.7v1.1H44v1.4h3.1v1.1H44v1.6h3.5v1.1h-4.8V11.6L42.7,11.6z M40.1,15.4c-0.2,0-0.4,0.1-0.6,0.1
					c-0.2,0-0.4,0-0.5,0.1s-0.3,0-0.4,0c-0.1,0-0.2,0-0.2,0c-0.3,0-0.6,0-0.8-0.1c-0.2-0.1-0.4-0.1-0.5-0.2
					c-0.1-0.1-0.3-0.2-0.3-0.3s-0.1-0.2-0.2-0.4c0-0.1-0.1-0.2-0.1-0.4c0-0.1,0-0.2,0-0.4v-2.3h1.3v2c0,0.2,0,0.4,0.1,0.5
					c0,0.1,0.1,0.2,0.2,0.3c0.1,0.1,0.2,0.1,0.3,0.2c0.1,0,0.3,0,0.5,0c0.1,0,0.2,0,0.3,0c0.1,0,0.2,0,0.3,0c0.1,0,0.2,0,0.3-0.1
					c0.1,0,0.2,0,0.3-0.1v-2.8h1.3v6.3h-1.3V15.4L40.1,15.4z"/>
			</defs>
			<clipPath id="XMLID_5_">
				<use xlink:href="#XMLID_2033_"  style="overflow:visible;"/>
			</clipPath>
			<clipPath id="XMLID_6_" class="st3">
				<use xlink:href="#XMLID_2023_"  style="overflow:visible;"/>
			</clipPath>
			<rect id="XMLID_2034_" x="35.5" y="10.5" class="st4" width="45.3" height="8.5"/>
		</g>
		<g id="XMLID_2009_">
			<defs>
				<rect id="XMLID_2020_" width="81.6" height="28"/>
			</defs>
			<defs>
				<path id="XMLID_2010_" d="M22.5,26.4l-0.9-0.7l0.4-0.6l0.9,0.7L22.5,26.4L22.5,26.4L22.5,26.4z M22.3,26.7l-0.4,0.6l-0.9-0.7
					l0.4-0.6L22.3,26.7L22.3,26.7L22.3,26.7z M22.8,26.6l0.7-0.9l-1.6-1.1l-0.7,0.9l-0.3-0.2l-0.2,0.3l0.3,0.2l-0.7,0.9l1.6,1.1
					l0.7-0.9l0.3,0.2l0.2-0.3L22.8,26.6L22.8,26.6L22.8,26.6z M22.6,24.2l0.7-0.9l0.3,0.2L23,24.4L22.6,24.2L22.6,24.2L22.6,24.2z
					 M23.3,24.6l0.9-1.3l-0.9-0.7l-1.1,1.6l1.6,1.1l0.2-0.3L23.3,24.6L23.3,24.6L23.3,24.6z M24.6,21.4l0.9,0.7l-0.7,0.9L24,22.3
					L24.6,21.4L24.6,21.4L24.6,21.4z M26.1,21.9l-1.6-1.1l-1.1,1.6l1.6,1.1L26.1,21.9L26.1,21.9L26.1,21.9z M27.2,20.4l0.2-0.3
					l-1.6-1.1l-0.2,0.3l0.6,0.4l-0.7,0.9L25,20.2l-0.2,0.3l1.6,1.1l0.2-0.3l-0.6-0.4l0.7-0.9L27.2,20.4L27.2,20.4L27.2,20.4z
					 M27.3,17.4L27,17.2l-1.1,1.6l0.3,0.2l0.4-0.6l1.2,0.9l0.2-0.3l-1.2-0.9L27.3,17.4L27.3,17.4L27.3,17.4z"/>
			</defs>
			<clipPath id="XMLID_7_">
				<use xlink:href="#XMLID_2020_"  style="overflow:visible;"/>
			</clipPath>
			<clipPath id="XMLID_8_" class="st5">
				<use xlink:href="#XMLID_2010_"  style="overflow:visible;"/>
			</clipPath>
			<rect id="XMLID_2021_" x="19.4" y="16.3" class="st6" width="9.7" height="12.5"/>
		</g>
		<g id="XMLID_1973_">
			<defs>
				<rect id="XMLID_2007_" width="81.6" height="28"/>
			</defs>
			<defs>
				<path id="XMLID_1974_" d="M14.7,26.5L14,27.4l-0.9-0.7l0.7-0.9L14.7,26.5L14.7,26.5L14.7,26.5z M15.2,26.4l-1.6-1.1l-1.1,1.6
					l1.6,1.1L15.2,26.4L15.2,26.4L15.2,26.4z M15.3,25.6L15,25.3l0.7-0.9l0.3,0.2L15.3,25.6L15.3,25.6L15.3,25.6z M14.9,24.2
					l0.4-0.5l-0.3-0.2L13.9,25l1.6,1.1l1.1-1.6l-0.9-0.7l-0.2,0.3l-0.1,0.2l-0.5,0.7l-0.3-0.2L14.9,24.2L14.9,24.2L14.9,24.2z
					 M18.6,22.2l0.2-0.3l-0.6-0.4l-0.2,0.3l-1.3-0.9l-0.2,0.3l1.3,0.9l-0.4,0.6L16,21.9l-0.2,0.3l1.2,0.9l-0.4,0.6l-1.2-0.9
					l-0.2,0.3l1.6,1.1l1.5-2.2L18.6,22.2L18.6,22.2L18.6,22.2z M18,20.4l-0.3-0.2l0.9-1.3l-0.3-0.2l-1.1,1.6l1.6,1.1l1.1-1.6
					l-0.3-0.2l-0.9,1.2l-0.3-0.2l0.9-1.2l-0.3-0.2L18,20.4L18,20.4L18,20.4z M19.6,17.4l0.3,0.2l-0.7,0.9L19,18.3L19.6,17.4
					L19.6,17.4L19.6,17.4z M20.5,17.5l-0.9-0.7l-1.1,1.6l1.6,1.1l0.2-0.3l-0.6-0.4L20.5,17.5L20.5,17.5L20.5,17.5z M21.9,16.2
					l-0.7,0.9l-0.9-0.7l0.7-0.9L21.9,16.2L21.9,16.2L21.9,16.2z M22.4,16.1L20.9,15l-1.1,1.6l1.6,1.1L22.4,16.1L22.4,16.1L22.4,16.1
					z M22.5,15.2l-0.9-0.7l0.9-1.2l-0.3-0.2l-1.1,1.6l1.6,1.1l1.1-1.6L23.4,14L22.5,15.2L22.5,15.2L22.5,15.2z M24.7,12.1l-0.9,1.2
					l-0.9-0.7l0.9-1.2l-0.3-0.2l-1.1,1.6l1.6,1.1l1.1-1.6L24.7,12.1L24.7,12.1L24.7,12.1z M25.4,11.2L25.1,11l-0.2,0.3l-0.9-0.7
					l-0.2,0.3l1.6,1.1l0.2-0.3l-0.3-0.2L25.4,11.2L25.4,11.2L25.4,11.2z M25.3,10.7L25,10.4l-0.2,0.3l0.3,0.2L25.3,10.7L25.3,10.7
					L25.3,10.7z M26.1,10.8l0.2-0.3l-1.6-1.1l-0.2,0.3l0.3,0.2l-0.2,0.3l0.3,0.2l0.2-0.3L26.1,10.8L26.1,10.8L26.1,10.8z M25.4,8.4
					l0.2-0.3l-0.3-0.2l-0.2,0.3L25.4,8.4L25.4,8.4L25.4,8.4z M26.7,9.3l-0.3-0.2l-0.2,0.3l-0.9-0.7L25,9.1l1.6,1.1l0.2-0.3l-0.3-0.2
					L26.7,9.3L26.7,9.3L26.7,9.3z M26.6,8.8l-0.3-0.2l-0.2,0.3l0.3,0.2L26.6,8.8L26.6,8.8L26.6,8.8z M27.7,8.6l-1.6-1.1l-0.2,0.3
					L26.2,8L26,8.3l0.3,0.2l0.2-0.3l0.9,0.7L27.7,8.6L27.7,8.6L27.7,8.6z M27.8,7.7l-0.9-0.7l0.9-1.2l-0.3-0.2l-1.1,1.6l1.6,1.1
					L29,6.7l-0.3-0.2L27.8,7.7L27.8,7.7L27.8,7.7z M28.8,4.3L29,4l-0.3-0.2l-0.2,0.3L28.8,4.3L28.8,4.3L28.8,4.3z M29.2,5l-0.3-0.2
					l-0.4,0.6L27.9,5l-0.2,0.3l1.6,1.1l0.2-0.3l-0.6-0.4L29.2,5L29.2,5L29.2,5z M30,4.6l-0.2,0.3l0.3,0.2l0.2-0.3L30,4.6L30,4.6
					L30,4.6z M29.5,4.7L29.2,5l0.3,0.2l0.2-0.3L29.5,4.7L29.5,4.7L29.5,4.7z M29.1,4.5l-0.3-0.2l-0.2,0.3l0.3,0.2L29.1,4.5L29.1,4.5
					L29.1,4.5z M30.6,3.7l-0.3-0.2l-0.2,0.3l-0.9-0.7L29,3.4l1.6,1.1l0.2-0.3L30.4,4L30.6,3.7L30.6,3.7L30.6,3.7z M30.5,3.2
					l-0.3-0.2L30,3.2l0.3,0.2L30.5,3.2L30.5,3.2L30.5,3.2z M31.6,3L30,1.9l-0.2,0.3l0.3,0.2l-0.2,0.3l0.3,0.2l0.2-0.3l0.9,0.7
					L31.6,3L31.6,3L31.6,3z M30.7,0.9l0.2-0.3l-0.3-0.2l-0.2,0.3L30.7,0.9L30.7,0.9L30.7,0.9z M32,1.8l-0.3-0.2l-0.2,0.3l-0.9-0.7
					l-0.2,0.3l1.6,1.1L32,2.3l-0.3-0.2L32,1.8L32,1.8L32,1.8z M31.9,1.3l-0.3-0.2l-0.2,0.3l0.3,0.2L31.9,1.3L31.9,1.3L31.9,1.3z
					 M31.4,0l-0.2,0.3l0.3,0.2l-0.2,0.3l0.3,0.2l0.2-0.3l0.9,0.7l0.2-0.3L31.4,0L31.4,0L31.4,0z"/>
			</defs>
			<clipPath id="XMLID_9_">
				<use xlink:href="#XMLID_2007_"  style="overflow:visible;"/>
			</clipPath>
			<clipPath id="XMLID_10_" class="st7">
				<use xlink:href="#XMLID_1974_"  style="overflow:visible;"/>
			</clipPath>
			<rect id="XMLID_2008_" x="11.6" y="-0.9" class="st8" width="22.3" height="29.8"/>
		</g>
		<g id="XMLID_1952_">
			<defs>
				<rect id="XMLID_1971_" width="81.6" height="28"/>
			</defs>
			<defs>
				<path id="XMLID_1953_" d="M19.1,26.3l-1.6-1.1l-0.2,0.3L18,26l-0.7,0.9l-0.6-0.4l-0.2,0.3l1.6,1.1l0.2-0.3l-0.6-0.4l0.7-0.9
					l0.6,0.4L19.1,26.3L19.1,26.3L19.1,26.3z M19,23.9l0.3,0.2l-0.7,0.9l-0.3-0.2L19,23.9L19,23.9L19,23.9z M20.4,24.5l-1.6-1.1
					l-1.1,1.6l1.6,1.1l0.2-0.3l-0.6-0.4l0.7-0.9l0.6,0.4L20.4,24.5L20.4,24.5L20.4,24.5z M20.3,22l0.3,0.2l-0.7,0.9L19.6,23L20.3,22
					L20.3,22L20.3,22z M21.1,22.2l-0.9-0.7l-1.1,1.6l1.6,1.1l0.2-0.3l-0.6-0.4L21.1,22.2L21.1,22.2L21.1,22.2z M20.9,21.1l0.7-0.9
					l0.9,0.7l-0.7,0.9L20.9,21.1L20.9,21.1L20.9,21.1z M22,22.3l1.1-1.6l-1.6-1.1l-1.1,1.6L22,22.3L22,22.3L22,22.3z M23.9,18.8
					l-0.7,0.9l-0.9-0.7l0.7-0.9L23.9,18.8L23.9,18.8L23.9,18.8z M24.8,18.9l0.2-0.3l-0.6-0.4l-0.2,0.3l-1.3-0.9l-1.1,1.6l1.2,0.9
					l-0.2,0.3l0.6,0.4l0.2-0.3l-0.3-0.2l1.1-1.6L24.8,18.9L24.8,18.9L24.8,18.9z M25.9,16.7l-1.6-1.1l-0.2,0.3l0.6,0.4l-0.7,0.9
					l-0.6-0.4l-0.2,0.3l1.6,1.1l0.2-0.3l-0.6-0.4l0.7-0.9l0.6,0.4L25.9,16.7L25.9,16.7L25.9,16.7z M25.7,15.6l0.7-0.9l0.3,0.2
					L26,15.8L25.7,15.6L25.7,15.6L25.7,15.6z M26.1,16.3l1.1-1.6l-0.9-0.7l-0.9,1.3l-0.6-0.4l-0.2,0.3L26.1,16.3L26.1,16.3
					L26.1,16.3z M27.4,14.5l0.2-0.3l-1.6-1.1l-0.2,0.3L27.4,14.5L27.4,14.5L27.4,14.5z M27,11.8l-0.3-0.2l-0.2,0.3l0.3,0.2L27,11.8
					L27,11.8L27,11.8z M28,13l-0.3-0.2l-0.2,0.3l-0.9-0.7l-0.2,0.3l1.6,1.1l0.2-0.3l-0.3-0.2L28,13L28,13L28,13z M27.9,12.5
					l-0.3-0.2l-0.2,0.3l0.3,0.2L27.9,12.5L27.9,12.5L27.9,12.5z M27.4,11.2l-0.2,0.3l0.3,0.2L27.3,12l0.3,0.2l0.2-0.3l0.9,0.7
					l0.2-0.3L27.4,11.2L27.4,11.2L27.4,11.2z"/>
			</defs>
			<clipPath id="XMLID_11_">
				<use xlink:href="#XMLID_1971_"  style="overflow:visible;"/>
			</clipPath>
			<clipPath id="XMLID_12_" class="st9">
				<use xlink:href="#XMLID_1953_"  style="overflow:visible;"/>
			</clipPath>
			<rect id="XMLID_1972_" x="15.5" y="10.2" class="st10" width="14.4" height="18.6"/>
		</g>
		<g id="XMLID_1948_">
			<defs>
				<rect id="XMLID_1950_" width="81.6" height="28"/>
			</defs>
			<defs>
				<polyline id="XMLID_1949_" points="3.6,9.7 0,9.7 11.5,26.1 13.3,23.5 3.6,9.7 				"/>
			</defs>
			<clipPath id="XMLID_13_">
				<use xlink:href="#XMLID_1950_"  style="overflow:visible;"/>
			</clipPath>
			<clipPath id="XMLID_14_" class="st11">
				<use xlink:href="#XMLID_1949_"  style="overflow:visible;"/>
			</clipPath>
			<rect id="XMLID_1951_" x="-0.9" y="8.8" class="st12" width="15.2" height="18.3"/>
		</g>
		<g id="XMLID_1944_">
			<defs>
				<rect id="XMLID_1946_" width="81.6" height="28"/>
			</defs>
			<defs>
				<polyline id="XMLID_1945_" points="7.3,9.7 3.6,9.7 13.3,23.5 15.1,20.9 7.3,9.7 				"/>
			</defs>
			<clipPath id="XMLID_15_">
				<use xlink:href="#XMLID_1946_"  style="overflow:visible;"/>
			</clipPath>
			<clipPath id="XMLID_16_" class="st13">
				<use xlink:href="#XMLID_1945_"  style="overflow:visible;"/>
			</clipPath>
			<rect id="XMLID_1947_" x="2.7" y="8.8" class="st14" width="13.4" height="15.7"/>
		</g>
		<g id="XMLID_1940_">
			<defs>
				<rect id="XMLID_1942_" width="81.6" height="28"/>
			</defs>
			<defs>
				<polyline id="XMLID_1941_" points="7.3,9.7 15.1,20.9 17,18.3 11,9.7 7.3,9.7 				"/>
			</defs>
			<clipPath id="XMLID_17_">
				<use xlink:href="#XMLID_1942_"  style="overflow:visible;"/>
			</clipPath>
			<clipPath id="XMLID_18_" class="st15">
				<use xlink:href="#XMLID_1941_"  style="overflow:visible;"/>
			</clipPath>
			<rect id="XMLID_1943_" x="6.4" y="8.8" class="st16" width="11.6" height="13.1"/>
		</g>
		<g id="XMLID_1936_">
			<defs>
				<rect id="XMLID_1938_" width="81.6" height="28"/>
			</defs>
			<defs>
				<polyline id="XMLID_1937_" points="10.9,9.7 17,18.3 17.3,17.9 11.6,9.7 10.9,9.7 				"/>
			</defs>
			<clipPath id="XMLID_19_">
				<use xlink:href="#XMLID_1938_"  style="overflow:visible;"/>
			</clipPath>
			<clipPath id="XMLID_20_" class="st17">
				<use xlink:href="#XMLID_1937_"  style="overflow:visible;"/>
			</clipPath>
			<rect id="XMLID_1939_" x="10" y="8.8" class="st18" width="8.2" height="10.5"/>
		</g>
	</g>
</g>
</svg>
