<?xml version="1.0" encoding="utf-8"?>
<!-- Generator: Adobe Illustrator 23.0.1, SVG Export Plug-In . SVG Version: 6.00 Build 0)  -->
<svg version="1.1" id="Layer_1" xmlns="http://www.w3.org/2000/svg" xmlns:xlink="http://www.w3.org/1999/xlink" x="0px" y="0px"
	 viewBox="0 0 60.4 28" style="enable-background:new 0 0 60.4 28;" xml:space="preserve">
<style type="text/css">
	.st0{fill-rule:evenodd;clip-rule:evenodd;fill:#2C1C00;}
</style>
<g>
	<path class="st0" d="M29.3,4.6V2.9h1V2.5h-1.5v2.1H29.3L29.3,4.6z M21.1,22.2L6,22.3l-6-0.1l5.2-6.9l0,0l-0.3,0.4l9.2,3.1
		c-0.6-1.1-0.9-1.9-0.6-2.8c0.8-0.1,1.7-0.3,2.4-0.6L15,18.3l0.2,0v0l6,2v0h7.5V7.8h1.2l28.6,9.4c0-0.6,0-1.3,0-2V7.8h1.3v14.5h-1.2
		l-28.6-9.4c0,0.6,0,1.3,0,2v5.6h0v1.8H21.1L21.1,22.2z M20.2,6.1c0-0.3-0.1-0.5-0.1-0.8c0-0.3,0.1-0.6,0.2-0.9
		c0.7-1.5-2-3.4-3.6-3.8C10.1-1.2,4.4,1.4,4.5,9.8c0,0.1,0,0.1,0,0.1l-0.2,0.8c-0.1,0.4-0.1,0.7-0.1,1.1c0,0.4,0,0.7,0.1,1.1
		c0,0.2,0.1,0.4,0.2,0.6l0.3,0.4c0,0.1,0.1,0.1,0.1,0.1C5,14,5,14,5,14.1l0.2,0.1c0.1,0,0.1,0.1,0.2,0.1c0,0,0,0,0.1,0.1
		c0.2,0.1,0.3,0.2,0.5,0.3c2.1,1,6.2,1.1,10.3-0.3c-1.5-0.1-2.1-1.6-1.8-3.2c0.3-1.8,1-2.5,0.7-4.5c0-0.1,0-0.2-0.1-0.4
		c-0.1-0.5-0.1-0.5-0.2-1c-0.3-1-0.2-2.6-0.3-3.3c0-0.8-0.1-1.1,0.9-0.8C18,2,19.3,3.6,19.3,6.4c0,0.1,0,0,0,0.1c0,0,0,0,0,0l0,0
		L20,7.4c0,0,0,0,0,0l0,0l0.3,0.4c0.5,0.7,1.4,2,1.7,2.7c0.5,1.1-0.9,0.8-1.2,0.6c-0.5-0.3-2.3-0.2-2-0.7c0,0,0.1-0.1,0.1-0.1
		c0.2-0.1,0.1-0.2-0.1-0.1c-0.7,0.2-0.2,1.1,0.8,0.8c1.1,0,1.9,1,2.8,0.4c0.6-0.4-1.2-2.8-1.5-3.3c0.4-0.1,1.1-0.3,1.7-0.5
		c-1.3,0-2.4-0.9-2.4-2.2C20,5.5,20.1,5.8,20.2,6.1L20.2,6.1z M15.8,5.7c3.8-0.9,3.4,1.7,2.4,0.8C17.4,5.6,15.3,5.8,15.8,5.7
		L15.8,5.7z M19.7,11.1c-0.2-0.1-1-0.1-1.2,0.9c-0.1,0.2-0.7,0.2-0.6,0.3C18.6,13,20.7,11.7,19.7,11.1L19.7,11.1z M15.8,14.8
		l0.5,0.2c0.1,0,0.1,0,0.1,0c0.8,0.2,2.8,0.9,3.6,0.1l0.1-0.1c0.2-0.2,0.2-0.5,0.2-0.8c0-0.1-0.1-0.3-0.1-0.5c0-0.1-0.2-1-0.3-1.5
		l0,0l0,0l0,0l0,0l0,0l0,0l0,0l0,0l0,0l0,0l0,0l0,0l0,0l0,0l0,0l0,0l0,0l0,0l0,0l0,0l0,0l0,0l0,0l0,0l0,0l0,0l0,0l0,0l0,0l0,0l0,0
		l0,0l0,0l0,0l0,0l0,0l0,0l0,0l0,0l0,0l0,0l0,0l0,0l0,0l0,0l0,0l0,0l0,0l0,0l0,0l0,0l0,0l0,0l0,0l0,0l0,0l0,0l0,0l0,0l0,0l0,0l0,0
		l0,0l0,0l0,0l0,0l0,0l0,0l0,0l0,0l0,0l0,0l0,0l0,0l0,0l0,0l0,0l0,0l0,0l0,0c0.1,0.5,0.2,1,0.3,1.5c0.1,0.3,0.2,0.5,0.1,0.8
		c-0.1,0.3-0.2,0.3-0.5,0.5c-0.6,0.3-2.5-0.1-3.3-0.5C16.1,14.7,15.9,14.8,15.8,14.8L15.8,14.8z M17.7,7.5L17.7,7.5
		C17.7,7.4,17.7,7.4,17.7,7.5c0-0.2,0-0.2,0-0.3c0,0,0,0.1,0,0.1C17.6,7.4,17.6,7.4,17.7,7.5L17.7,7.5L17.7,7.5L17.7,7.5L17.7,7.5
		L17.7,7.5L17.7,7.5L17.7,7.5L17.7,7.5L17.7,7.5L17.7,7.5L17.7,7.5L17.7,7.5l-0.1,0l0,0l0,0l0,0h0l0,0l0,0l0,0l0,0l0,0l0,0l0,0l0,0
		l0,0l0,0l0,0l0,0l0,0l0,0l0,0l0,0l0,0l0,0l0,0l0,0l0,0l0,0l0,0l0,0l0,0l0,0l0,0l0,0l0,0l0,0l0,0l0,0h0l0,0l0,0l0,0l0,0l0,0l0,0l0,0
		l0,0l0,0l0,0l0,0l0,0l0,0l0,0l0,0l0,0l0,0l0,0l0,0l0,0l0,0l0,0l0,0l0,0l0,0l0,0l0,0l0,0l0,0l0,0l0,0l0,0l0,0l0,0l0,0h0l0,0l0,0l0,0
		h0l0,0l0,0h0l0,0l0,0l0,0l0,0l0,0l0,0l0,0l0,0l0,0l0,0l0,0l0,0l0,0l0,0l0,0l0,0l0,0l0,0l0,0l0,0l0,0l0,0c-0.1,0-0.2-0.1-0.3-0.2
		c0,0.2,0.2,0.4,0.4,0.4l0,0l0,0l0,0l0,0l0,0h0l0,0h0l0,0h0h0l0,0l0,0h0l0,0l0,0l0,0l0,0l0,0l0,0l0,0l0,0l0,0l0,0l0,0l0,0l0,0
		c0,0,0,0,0,0l0,0l0,0l0,0l0,0l0,0l0,0l0,0l0,0l0,0l0,0l0,0l0,0l0,0l0,0l0,0l0,0l0,0l0,0l0,0l0,0l0,0l0,0l0,0l0,0l0,0l0,0l0,0l0,0
		l0,0l0,0l0,0l0,0l0,0l0,0l0,0l0,0l0,0l0,0l0,0l0,0l0,0l0,0l0,0l0,0l0,0l0,0l0,0l0,0l0,0l0,0l0,0l0,0l0,0l0,0l0,0l0,0l0,0l0,0l0,0
		l0,0l0,0l0,0l0,0L17.7,7.5L17.7,7.5L17.7,7.5L17.7,7.5L17.7,7.5L17.7,7.5L17.7,7.5L17.7,7.5L17.7,7.5C17.7,7.5,17.7,7.5,17.7,7.5
		L17.7,7.5L17.7,7.5L17.7,7.5L17.7,7.5L17.7,7.5L17.7,7.5z M17.1,7.2C17.2,7.2,17.2,7.3,17.1,7.2C17.1,7.3,17,7.3,17,7.3
		c0,0,0-0.1,0-0.1C17.1,7.2,17.1,7.2,17.1,7.2L17.1,7.2z M17.8,7.4c0.4-0.1,0-0.9-0.8-0.7c-0.3,0.1-0.6,0.3-0.3,0.5c0,0,0,0.1,0,0.1
		c0,0.3,0.2,0.6,0.5,0.6C17.5,7.9,17.8,7.7,17.8,7.4L17.8,7.4L17.8,7.4z M1.4,27.9v-1.6h0.9v1.6h0.4v-2H1v2H1.4L1.4,27.9z M3.3,25.9
		v2h0.4v-0.7H4c0.5,0,0.9-0.2,0.9-0.7c0-0.5-0.4-0.7-0.9-0.7H3.3L3.3,25.9z M4.5,26.6c0,0.2-0.2,0.3-0.4,0.3H3.7v-0.6h0.3
		C4.3,26.3,4.5,26.3,4.5,26.6L4.5,26.6z M5.2,26.9c0,0.5,0.4,1,1.1,1c0.7,0,1.1-0.5,1.1-1s-0.4-1-1.1-1C5.6,25.9,5.2,26.4,5.2,26.9
		L5.2,26.9z M6.9,26.9c0,0.3-0.2,0.6-0.6,0.6c-0.4,0-0.6-0.3-0.6-0.6s0.2-0.6,0.6-0.6C6.7,26.3,6.9,26.5,6.9,26.9L6.9,26.9z
		 M7.8,25.9v2h1.4v-0.4h-1v-0.4h0.9v-0.4H8.2v-0.4h1v-0.4H7.8L7.8,25.9z M10.1,27.9v-0.8h0.3l0.5,0.8h0.5l-0.7-1l0.6-1h-0.5
		l-0.5,0.8h-0.3v-0.8H9.7v2H10.1L10.1,27.9z M11.6,25.9v0.4h0.6v1.6h0.4v-1.6h0.6v-0.4H11.6L11.6,25.9z M14.1,26.9
		c0,0.5,0.4,1,1.1,1c0.7,0,1.1-0.5,1.1-1s-0.4-1-1.1-1C14.5,25.9,14.1,26.4,14.1,26.9L14.1,26.9z M15.8,26.9c0,0.3-0.2,0.6-0.6,0.6
		c-0.4,0-0.6-0.3-0.6-0.6s0.2-0.6,0.6-0.6C15.6,26.3,15.8,26.5,15.8,26.9L15.8,26.9z M18,25.9v0.8h-0.9v-0.8h-0.4v2h0.4v-0.8H18v0.8
		h0.4v-2H18L18,25.9z M20.3,28v-0.3c0.6,0,1-0.3,1-0.9s-0.4-0.8-1-0.9v-0.3h-0.4V26c-0.6,0-1,0.3-1,0.9c0,0.5,0.4,0.8,1,0.9V28H20.3
		L20.3,28z M19.3,26.9c0-0.3,0.1-0.5,0.6-0.5v1C19.4,27.4,19.3,27.1,19.3,26.9L19.3,26.9z M20.3,26.4c0.4,0,0.6,0.3,0.6,0.5
		c0,0.3-0.1,0.5-0.6,0.5V26.4L20.3,26.4z M23.6,27.8l-0.4-0.6l0.4-0.6h-0.4l-0.4,0.5v0.1l0.4,0.5H23.6L23.6,27.8z M22.9,27.8h-0.4
		l-0.4-0.5v-0.1l0.4-0.5h0.4l-0.4,0.6L22.9,27.8L22.9,27.8z M25.5,27.3c0-0.3-0.2-0.5-0.4-0.5c0.2-0.1,0.3-0.2,0.3-0.4
		c0-0.4-0.3-0.5-0.8-0.5c-0.2,0-0.4,0-0.7,0.1v0.4c0.2-0.1,0.4-0.2,0.6-0.2c0.3,0,0.4,0.1,0.4,0.2c0,0.1-0.1,0.2-0.3,0.2h-0.4l0,0.4
		h0.4c0.2,0,0.4,0,0.4,0.2c0,0.2-0.2,0.3-0.4,0.3c-0.2,0-0.4,0-0.7-0.2v0.4c0.3,0.1,0.5,0.1,0.7,0.1C25,27.9,25.5,27.8,25.5,27.3
		L25.5,27.3z M26.1,27.9l0.1-0.4h0.9l0.1,0.4h0.4l-0.8-2h-0.5l-0.8,2H26.1L26.1,27.9z M26.7,26.4c0,0,0-0.1,0-0.2
		C26.7,26.4,26.7,26.4,26.7,26.4l0.4,0.7h-0.6L26.7,26.4L26.7,26.4z M30.3,27.9v-2h-0.4v0.9c-0.1,0.1-0.3,0.1-0.4,0.1
		c-0.2,0-0.4-0.1-0.4-0.3v-0.7h-0.4v0.7c0,0.5,0.3,0.7,0.7,0.7c0.2,0,0.3,0,0.5-0.1v0.7H30.3L30.3,27.9z M30.9,25.9v2h1.4v-0.4h-1
		v-0.4h0.9v-0.4h-0.9v-0.4h1v-0.4H30.9L30.9,25.9z M32.6,26.9c0,0.7,0.5,1,1.1,1c0.2,0,0.4,0,0.6-0.1v-0.4c-0.1,0.1-0.3,0.2-0.5,0.2
		c-0.3,0-0.7-0.2-0.7-0.6c0-0.5,0.4-0.7,0.7-0.7c0.2,0,0.4,0.1,0.5,0.2V26c-0.2-0.1-0.4-0.1-0.6-0.1C33.1,25.9,32.6,26.2,32.6,26.9
		L32.6,26.9z M34.5,25.9v0.4h0.6v1.6h0.4v-1.6h0.6v-0.4H34.5L34.5,25.9z M37.9,25.9v0.8H37v-0.8h-0.4v2H37v-0.8h0.9v0.8h0.4v-2H37.9
		L37.9,25.9z M39.6,27.9c0.5,0,0.9-0.2,0.9-0.7c0-0.5-0.4-0.7-0.9-0.7h-0.3v-0.7h-0.4v2H39.6L39.6,27.9z M39.3,26.9h0.3
		c0.2,0,0.4,0.1,0.4,0.3c0,0.2-0.2,0.3-0.4,0.3h-0.3V26.9L39.3,26.9z M41.1,27.9v-2h-0.4v2H41.1L41.1,27.9z M41.6,25.9v2h1.4v-0.4
		h-1v-0.4H43v-0.4h-0.9v-0.4h1v-0.4H41.6L41.6,25.9z M45.6,27.3c0-0.3-0.2-0.5-0.4-0.5c0.2-0.1,0.3-0.2,0.3-0.4
		c0-0.4-0.3-0.5-0.8-0.5c-0.2,0-0.4,0-0.7,0.1v0.4c0.2-0.1,0.4-0.2,0.6-0.2c0.3,0,0.4,0.1,0.4,0.2c0,0.1-0.1,0.2-0.3,0.2h-0.4l0,0.4
		h0.4c0.2,0,0.4,0,0.4,0.2c0,0.2-0.2,0.3-0.4,0.3c-0.2,0-0.4,0-0.7-0.2v0.4c0.3,0.1,0.5,0.1,0.7,0.1C45.2,27.9,45.6,27.8,45.6,27.3
		L45.6,27.3z M46.2,27.9l0.1-0.4h0.9l0.1,0.4h0.4l-0.8-2h-0.5l-0.8,2H46.2L46.2,27.9z M46.8,26.4c0,0,0-0.1,0-0.2
		C46.9,26.4,46.9,26.4,46.8,26.4l0.4,0.7h-0.6L46.8,26.4L46.8,26.4z M48.7,27.9v-0.8H49l0.5,0.8H50l-0.7-1l0.6-1h-0.5L49,26.7h-0.3
		v-0.8h-0.4v2H48.7L48.7,27.9z M51.3,27.4l0.7-1.5h-0.5l-0.4,1l-0.5-1h-0.5l0.8,1.4l0,0.1c-0.1,0.1-0.2,0.2-0.3,0.2
		c-0.1,0-0.2,0-0.2,0v0.4c0.1,0,0.2,0,0.3,0C50.9,27.9,51.1,27.8,51.3,27.4L51.3,27.4z M52.8,27.9v-1.6h0.9v1.6h0.4v-2h-1.7v2H52.8
		L52.8,27.9z M55.1,27.9v-0.8h0.3l0.5,0.8h0.5l-0.7-1l0.6-1h-0.5l-0.5,0.8h-0.3v-0.8h-0.4v2H55.1L55.1,27.9z M58.5,27.9v-2h-0.4
		l-0.9,1.3c0-0.1,0-0.2,0-0.3v-1h-0.4v2h0.4l0.9-1.3c0,0.1,0,0.2,0,0.3v1H58.5L58.5,27.9z M60,27.8l0.4-0.5v-0.1L60,26.7h-0.4
		l0.4,0.6l-0.4,0.6H60L60,27.8z M59.4,27.8H59l0.4-0.6L59,26.7h0.4l0.4,0.5v0.1L59.4,27.8L59.4,27.8z M35.4,3.5
		c0,0.6,0.4,1.1,1.1,1.1c0.8,0,1.1-0.5,1.1-1.1c0-0.6-0.4-1.1-1.1-1.1C35.8,2.4,35.4,3,35.4,3.5L35.4,3.5z M37.2,3.5
		c0,0.4-0.2,0.7-0.7,0.7c-0.4,0-0.7-0.3-0.7-0.7c0-0.4,0.2-0.7,0.7-0.7C37,2.9,37.2,3.2,37.2,3.5L37.2,3.5z M43,2.5v2.1h0.5V3.9h0.3
		c0.5,0,0.9-0.2,0.9-0.7c0-0.6-0.4-0.7-0.9-0.7H43L43,2.5z M44.2,3.2c0,0.3-0.2,0.3-0.4,0.3h-0.4V2.9h0.4C44,2.9,44.2,2.9,44.2,3.2
		L44.2,3.2z M49.9,3.5c0,0.6,0.4,1.1,1.1,1.1s1.1-0.5,1.1-1.1c0-0.6-0.4-1.1-1.1-1.1S49.9,3,49.9,3.5L49.9,3.5z M51.7,3.5
		c0,0.4-0.2,0.7-0.7,0.7c-0.4,0-0.7-0.3-0.7-0.7c0-0.4,0.2-0.7,0.7-0.7C51.5,2.9,51.7,3.2,51.7,3.5L51.7,3.5z M57.7,5.1V4.6h1.5v0.5
		h0.4V4.2h-0.3V2.5h-1.5c0,0.6-0.1,1.2-0.3,1.7h-0.3v0.9H57.7L57.7,5.1z M58.3,2.9h0.6v1.3H58C58.2,3.9,58.2,3.4,58.3,2.9z"/>
</g>
</svg>
